solid Base-Inner-Corner
facet normal 0.7071067811865476 0.7071067811865475 1.3099872112592752e-17
  outer loop
    vertex 0.0 60.0 0.0
    vertex 60.0 0.0 4.499999999999999
    vertex 60.0 0.0 0.0
  endloop
endfacet
facet normal 0.7071067811865476 0.7071067811865475 1.3099872112592752e-17
  outer loop
    vertex 60.0 0.0 4.499999999999999
    vertex 0.0 60.0 0.0
    vertex 50.0 9.999999999999998 4.00000000000001
  endloop
endfacet
facet normal 0.7071067811865476 0.7071067811865475 1.3099872112592752e-17
  outer loop
    vertex 60.0 0.0 4.499999999999999
    vertex 50.0 9.999999999999998 4.00000000000001
    vertex 60.0 0.0 28.999999999999996
  endloop
endfacet
facet normal 0.7071067811865476 0.7071067811865475 1.3099872112592752e-17
  outer loop
    vertex 50.0 9.999999999999998 4.00000000000001
    vertex 0.0 60.0 0.0
    vertex 9.999999999999998 50.00000000000001 4.00000000000001
  endloop
endfacet
facet normal 0.7071067811865476 0.7071067811865475 1.3099872112592752e-17
  outer loop
    vertex 9.999999999999998 50.00000000000001 4.00000000000001
    vertex 0.0 60.0 0.0
    vertex 9.999999999999998 50.00000000000001 28.999999999999982
  endloop
endfacet
facet normal 0.7071067811865476 0.7071067811865475 1.3099872112592752e-17
  outer loop
    vertex 9.999999999999998 50.00000000000001 28.999999999999982
    vertex 0.0 60.0 0.0
    vertex 0.0 60.0 28.999999999999996
  endloop
endfacet
facet normal 0.7071067811865476 0.7071067811865475 1.3099872112592752e-17
  outer loop
    vertex 0.0 60.0 28.999999999999996
    vertex 0.0 60.0 0.0
    vertex 0.0 60.0 3.9999999999999996
  endloop
endfacet
facet normal 0.7071067811865476 0.7071067811865475 1.3099872112592752e-17
  outer loop
    vertex 0.0 60.0 28.999999999999996
    vertex 0.0 60.0 3.9999999999999996
    vertex 0.0 60.0 4.499999999999999
  endloop
endfacet
facet normal 0.7071067811865476 0.7071067811865475 1.3099872112592752e-17
  outer loop
    vertex 50.0 9.999999999999998 28.999999999999982
    vertex 60.0 0.0 28.999999999999996
    vertex 50.0 9.999999999999998 4.00000000000001
  endloop
endfacet
facet normal -1.0 0.0 0.0
  outer loop
    vertex -13.5 60.0 3.9999999999999996
    vertex -13.5 -13.5 0.0
    vertex -13.5 -13.5 3.9999999999999996
  endloop
endfacet
facet normal -1.0 0.0 0.0
  outer loop
    vertex -13.5 -13.5 0.0
    vertex -13.5 60.0 3.9999999999999996
    vertex -13.5 60.0 0.0
  endloop
endfacet
facet normal 0.0 1.0 0.0
  outer loop
    vertex -13.5 60.0 3.9999999999999996
    vertex 0.0 60.0 0.0
    vertex -13.5 60.0 0.0
  endloop
endfacet
facet normal 0.0 1.0 0.0
  outer loop
    vertex 0.0 60.0 0.0
    vertex -13.5 60.0 3.9999999999999996
    vertex 0.0 60.0 3.9999999999999996
  endloop
endfacet
facet normal 0.0 1.0 0.0
  outer loop
    vertex 0.0 60.0 3.9999999999999996
    vertex -13.5 60.0 3.9999999999999996
    vertex -0.49999999999999906 60.0 3.9999999999999996
  endloop
endfacet
facet normal 0.0 0.0 -1.0
  outer loop
    vertex 0.0 60.0 0.0
    vertex -13.5 -13.5 0.0
    vertex -13.5 60.0 0.0
  endloop
endfacet
facet normal 0.0 0.0 -1.0
  outer loop
    vertex -13.5 -13.5 0.0
    vertex 0.0 60.0 0.0
    vertex 60.0 -13.5 0.0
  endloop
endfacet
facet normal 0.0 0.0 -1.0
  outer loop
    vertex 60.0 -13.5 0.0
    vertex 0.0 60.0 0.0
    vertex 60.0 0.0 0.0
  endloop
endfacet
facet normal 0.0 1.0 0.0
  outer loop
    vertex 0.0 60.0 4.499999999999999
    vertex 0.0 60.0 3.9999999999999996
    vertex -0.49999999999999906 60.0 3.9999999999999996
  endloop
endfacet
facet normal 0.0 0.0 1.0
  outer loop
    vertex -13.5 -13.5 3.9999999999999996
    vertex -0.49999999999999906 -0.49999999999999906 3.9999999999999996
    vertex -13.5 60.0 3.9999999999999996
  endloop
endfacet
facet normal 0.0 0.0 1.0
  outer loop
    vertex -0.49999999999999906 -0.49999999999999906 3.9999999999999996
    vertex -13.5 -13.5 3.9999999999999996
    vertex 60.0 -13.5 3.9999999999999996
  endloop
endfacet
facet normal 0.0 0.0 1.0
  outer loop
    vertex -0.49999999999999906 -0.49999999999999906 3.9999999999999996
    vertex 60.0 -13.5 3.9999999999999996
    vertex 60.0 -0.49999999999999906 3.9999999999999996
  endloop
endfacet
facet normal 0.0 0.0 1.0
  outer loop
    vertex -0.49999999999999906 60.0 3.9999999999999996
    vertex -13.5 60.0 3.9999999999999996
    vertex -0.49999999999999906 -0.49999999999999906 3.9999999999999996
  endloop
endfacet
facet normal -0.7071067811865475 0.0 0.7071067811865477
  outer loop
    vertex 0.0 0.0 4.499999999999999
    vertex -0.49999999999999906 60.0 3.9999999999999996
    vertex -0.49999999999999906 -0.49999999999999906 3.9999999999999996
  endloop
endfacet
facet normal -0.7071067811865475 0.0 0.7071067811865477
  outer loop
    vertex -0.49999999999999906 60.0 3.9999999999999996
    vertex 0.0 0.0 4.499999999999999
    vertex 0.0 60.0 4.499999999999999
  endloop
endfacet
facet normal 0.0 -1.0 0.0
  outer loop
    vertex 60.0 0.0 4.499999999999999
    vertex 35.81527999207294 -8.459899447643692e-15 14.457333647189435
    vertex 0.0 0.0 4.499999999999999
  endloop
endfacet
facet normal 0.0 -1.0 0.0
  outer loop
    vertex 35.81527999207294 -8.459899447643692e-15 14.457333647189435
    vertex 60.0 0.0 4.499999999999999
    vertex 36.574999999999996 -8.459899447643692e-15 14.772019978079015
  endloop
endfacet
facet normal 0.0 -1.0 0.0
  outer loop
    vertex 36.574999999999996 -8.459899447643692e-15 14.772019978079015
    vertex 60.0 0.0 4.499999999999999
    vertex 60.0 0.0 28.999999999999996
  endloop
endfacet
facet normal 0.0 -1.0 0.0
  outer loop
    vertex 0.0 0.0 4.499999999999999
    vertex 35.81527999207294 -8.459899447643692e-15 14.457333647189435
    vertex 35.0 -8.459899447643692e-15 14.35
  endloop
endfacet
facet normal 0.0 -1.0 0.0
  outer loop
    vertex 36.574999999999996 -8.459899447643692e-15 14.772019978079015
    vertex 60.0 0.0 28.999999999999996
    vertex 37.22738636073762 -8.459899447643692e-15 15.272613639262374
  endloop
endfacet
facet normal 0.0 -1.0 0.0
  outer loop
    vertex 37.22738636073762 -8.459899447643692e-15 15.272613639262374
    vertex 60.0 0.0 28.999999999999996
    vertex 37.72798002192098 -8.459899447643692e-15 15.924999999999999
  endloop
endfacet
facet normal 0.0 -1.0 0.0
  outer loop
    vertex 37.72798002192098 -8.459899447643692e-15 15.924999999999999
    vertex 60.0 0.0 28.999999999999996
    vertex 38.04266635281057 -8.459899447643692e-15 16.68472000792706
  endloop
endfacet
facet normal 0.0 -1.0 0.0
  outer loop
    vertex 38.04266635281057 -8.459899447643692e-15 16.68472000792706
    vertex 60.0 0.0 28.999999999999996
    vertex 38.15 -8.459899447643692e-15 17.5
  endloop
endfacet
facet normal 0.0 -1.0 0.0
  outer loop
    vertex 38.15 -8.459899447643692e-15 17.5
    vertex 60.0 0.0 28.999999999999996
    vertex 38.04266635281057 -8.459899447643692e-15 18.315279992072938
  endloop
endfacet
facet normal 0.0 -1.0 0.0
  outer loop
    vertex 38.04266635281057 -8.459899447643692e-15 18.315279992072938
    vertex 60.0 0.0 28.999999999999996
    vertex 37.72798002192098 -8.459899447643692e-15 19.075
  endloop
endfacet
facet normal 0.0 -1.0 0.0
  outer loop
    vertex 37.72798002192098 -8.459899447643692e-15 19.075
    vertex 60.0 0.0 28.999999999999996
    vertex 37.22738636073763 -8.459899447643692e-15 19.727386360737622
  endloop
endfacet
facet normal 0.0 -1.0 0.0
  outer loop
    vertex 37.22738636073763 -8.459899447643692e-15 19.727386360737622
    vertex 60.0 0.0 28.999999999999996
    vertex 36.575 -8.459899447643692e-15 20.227980021920978
  endloop
endfacet
facet normal 0.0 -1.0 0.0
  outer loop
    vertex 36.575 -8.459899447643692e-15 20.227980021920978
    vertex 60.0 0.0 28.999999999999996
    vertex 35.81527999207294 -8.459899447643692e-15 20.542666352810564
  endloop
endfacet
facet normal 0.0 -1.0 0.0
  outer loop
    vertex 35.81527999207294 -8.459899447643692e-15 20.542666352810564
    vertex 60.0 0.0 28.999999999999996
    vertex 35.0 -8.459899447643692e-15 20.65
  endloop
endfacet
facet normal 0.0 -1.0 0.0
  outer loop
    vertex 0.0 0.0 4.499999999999999
    vertex 33.425000000000004 -8.459899447643692e-15 14.772019978079019
    vertex 0.0 0.0 28.999999999999996
  endloop
endfacet
facet normal 0.0 -1.0 0.0
  outer loop
    vertex 33.425000000000004 -8.459899447643692e-15 14.772019978079019
    vertex 0.0 0.0 4.499999999999999
    vertex 34.184720007927055 -8.459899447643692e-15 14.457333647189435
  endloop
endfacet
facet normal 0.0 -1.0 0.0
  outer loop
    vertex 34.184720007927055 -8.459899447643692e-15 14.457333647189435
    vertex 0.0 0.0 4.499999999999999
    vertex 35.0 -8.459899447643692e-15 14.35
  endloop
endfacet
facet normal 0.0 -1.0 0.0
  outer loop
    vertex 0.0 0.0 28.999999999999996
    vertex 33.425000000000004 -8.459899447643692e-15 14.772019978079019
    vertex 32.772613639262374 -8.459899447643692e-15 15.272613639262374
  endloop
endfacet
facet normal 0.0 -1.0 0.0
  outer loop
    vertex 0.0 0.0 28.999999999999996
    vertex 32.772613639262374 -8.459899447643692e-15 15.272613639262374
    vertex 32.272019978079015 -8.459899447643692e-15 15.924999999999999
  endloop
endfacet
facet normal 0.0 -1.0 0.0
  outer loop
    vertex 0.0 0.0 28.999999999999996
    vertex 32.272019978079015 -8.459899447643692e-15 15.924999999999999
    vertex 31.95733364718944 -8.459899447643692e-15 16.68472000792706
  endloop
endfacet
facet normal 0.0 -1.0 0.0
  outer loop
    vertex 0.0 0.0 28.999999999999996
    vertex 31.95733364718944 -8.459899447643692e-15 16.68472000792706
    vertex 31.849999999999998 -8.459899447643692e-15 17.5
  endloop
endfacet
facet normal 0.0 -1.0 0.0
  outer loop
    vertex 0.0 0.0 28.999999999999996
    vertex 31.849999999999998 -8.459899447643692e-15 17.5
    vertex 31.95733364718944 -8.459899447643692e-15 18.31527999207294
  endloop
endfacet
facet normal 0.0 -1.0 0.0
  outer loop
    vertex 0.0 0.0 28.999999999999996
    vertex 31.95733364718944 -8.459899447643692e-15 18.31527999207294
    vertex 32.272019978079015 -8.459899447643692e-15 19.075
  endloop
endfacet
facet normal 0.0 -1.0 0.0
  outer loop
    vertex 0.0 0.0 28.999999999999996
    vertex 32.272019978079015 -8.459899447643692e-15 19.075
    vertex 32.772613639262374 -8.459899447643692e-15 19.727386360737626
  endloop
endfacet
facet normal 0.0 -1.0 0.0
  outer loop
    vertex 0.0 0.0 28.999999999999996
    vertex 32.772613639262374 -8.459899447643692e-15 19.727386360737626
    vertex 33.425000000000004 -8.459899447643692e-15 20.22798002192098
  endloop
endfacet
facet normal 0.0 -1.0 0.0
  outer loop
    vertex 0.0 0.0 28.999999999999996
    vertex 33.425000000000004 -8.459899447643692e-15 20.22798002192098
    vertex 34.18472000792707 -8.459899447643692e-15 20.542666352810564
  endloop
endfacet
facet normal 0.0 -1.0 0.0
  outer loop
    vertex 0.0 0.0 28.999999999999996
    vertex 34.18472000792707 -8.459899447643692e-15 20.542666352810564
    vertex 35.0 -8.459899447643692e-15 20.65
  endloop
endfacet
facet normal 0.0 -1.0 0.0
  outer loop
    vertex 0.0 0.0 28.999999999999996
    vertex 35.0 -8.459899447643692e-15 20.65
    vertex 60.0 0.0 28.999999999999996
  endloop
endfacet
facet normal 0.0 -0.7071067811865481 0.707106781186547
  outer loop
    vertex 60.0 0.0 4.499999999999999
    vertex -0.49999999999999906 -0.49999999999999906 3.9999999999999996
    vertex 60.0 -0.49999999999999906 3.9999999999999996
  endloop
endfacet
facet normal 0.0 -0.7071067811865481 0.707106781186547
  outer loop
    vertex -0.49999999999999906 -0.49999999999999906 3.9999999999999996
    vertex 60.0 0.0 4.499999999999999
    vertex 0.0 0.0 4.499999999999999
  endloop
endfacet
facet normal 0.0 -1.0 0.0
  outer loop
    vertex 60.0 -13.5 3.9999999999999996
    vertex -13.5 -13.5 0.0
    vertex 60.0 -13.5 0.0
  endloop
endfacet
facet normal 0.0 -1.0 0.0
  outer loop
    vertex -13.5 -13.5 0.0
    vertex 60.0 -13.5 3.9999999999999996
    vertex -13.5 -13.5 3.9999999999999996
  endloop
endfacet
facet normal 1.0 0.0 0.0
  outer loop
    vertex 60.0 0.0 0.0
    vertex 60.0 -13.5 3.9999999999999996
    vertex 60.0 -13.5 0.0
  endloop
endfacet
facet normal 1.0 0.0 0.0
  outer loop
    vertex 60.0 -13.5 3.9999999999999996
    vertex 60.0 0.0 0.0
    vertex 60.0 -0.49999999999999906 3.9999999999999996
  endloop
endfacet
facet normal 1.0 0.0 0.0
  outer loop
    vertex 60.0 -0.49999999999999906 3.9999999999999996
    vertex 60.0 0.0 0.0
    vertex 60.0 0.0 4.499999999999999
  endloop
endfacet
facet normal 0.0 0.0 1.0
  outer loop
    vertex 14.999999999999998 9.999999999999998 4.00000000000001
    vertex 9.999999999999998 50.00000000000001 4.00000000000001
    vertex 9.999999999999998 14.999999999999998 4.00000000000001
  endloop
endfacet
facet normal 0.0 0.0 1.0
  outer loop
    vertex 9.999999999999998 50.00000000000001 4.00000000000001
    vertex 14.999999999999998 9.999999999999998 4.00000000000001
    vertex 50.0 9.999999999999998 4.00000000000001
  endloop
endfacet
facet normal -4.9565322995515664e-17 -4.956532299551563e-17 1.0
  outer loop
    vertex 9.999999999999998 50.00000000000001 28.999999999999982
    vertex 0.0 60.0 28.999999999999996
    vertex 9.999999999999998 14.999999999999998 28.999999999999982
  endloop
endfacet
facet normal -4.9565322995515664e-17 -4.956532299551563e-17 1.0
  outer loop
    vertex 0.0 0.0 28.999999999999996
    vertex 9.999999999999998 14.999999999999998 28.999999999999982
    vertex 0.0 60.0 28.999999999999996
  endloop
endfacet
facet normal -4.9565322995515664e-17 -4.956532299551563e-17 1.0
  outer loop
    vertex 9.999999999999998 14.999999999999998 28.999999999999982
    vertex 0.0 0.0 28.999999999999996
    vertex 14.999999999999998 9.999999999999998 28.999999999999982
  endloop
endfacet
facet normal -4.9565322995515664e-17 -4.956532299551563e-17 1.0
  outer loop
    vertex 14.999999999999998 9.999999999999998 28.999999999999982
    vertex 0.0 0.0 28.999999999999996
    vertex 60.0 0.0 28.999999999999996
  endloop
endfacet
facet normal -4.9565322995515664e-17 -4.956532299551563e-17 1.0
  outer loop
    vertex 14.999999999999998 9.999999999999998 28.999999999999982
    vertex 60.0 0.0 28.999999999999996
    vertex 50.0 9.999999999999998 28.999999999999982
  endloop
endfacet
facet normal 0.0 1.0 0.0
  outer loop
    vertex 14.999999999999998 9.999999999999998 4.00000000000001
    vertex 33.425000000000004 10.000000000000016 14.772019978079019
    vertex 50.0 9.999999999999998 4.00000000000001
  endloop
endfacet
facet normal 0.0 1.0 0.0
  outer loop
    vertex 33.425000000000004 10.000000000000016 14.772019978079019
    vertex 14.999999999999998 9.999999999999998 4.00000000000001
    vertex 32.772613639262374 10.000000000000016 15.272613639262374
  endloop
endfacet
facet normal 0.0 1.0 0.0
  outer loop
    vertex 32.772613639262374 10.000000000000016 15.272613639262374
    vertex 14.999999999999998 9.999999999999998 4.00000000000001
    vertex 14.999999999999998 9.999999999999998 28.999999999999982
  endloop
endfacet
facet normal 0.0 1.0 0.0
  outer loop
    vertex 50.0 9.999999999999998 4.00000000000001
    vertex 33.425000000000004 10.000000000000016 14.772019978079019
    vertex 34.184720007927055 10.000000000000016 14.457333647189435
  endloop
endfacet
facet normal 0.0 1.0 0.0
  outer loop
    vertex 50.0 9.999999999999998 4.00000000000001
    vertex 34.184720007927055 10.000000000000016 14.457333647189435
    vertex 35.0 10.000000000000016 14.35
  endloop
endfacet
facet normal 0.0 1.0 0.0
  outer loop
    vertex 32.772613639262374 10.000000000000016 15.272613639262374
    vertex 14.999999999999998 9.999999999999998 28.999999999999982
    vertex 32.272019978079015 10.000000000000016 15.924999999999999
  endloop
endfacet
facet normal 0.0 1.0 0.0
  outer loop
    vertex 32.272019978079015 10.000000000000016 15.924999999999999
    vertex 14.999999999999998 9.999999999999998 28.999999999999982
    vertex 31.95733364718944 10.000000000000016 16.68472000792706
  endloop
endfacet
facet normal 0.0 1.0 0.0
  outer loop
    vertex 31.95733364718944 10.000000000000016 16.68472000792706
    vertex 14.999999999999998 9.999999999999998 28.999999999999982
    vertex 31.849999999999998 10.000000000000016 17.5
  endloop
endfacet
facet normal 0.0 1.0 0.0
  outer loop
    vertex 31.849999999999998 10.000000000000016 17.5
    vertex 14.999999999999998 9.999999999999998 28.999999999999982
    vertex 31.95733364718944 10.000000000000016 18.31527999207294
  endloop
endfacet
facet normal 0.0 1.0 0.0
  outer loop
    vertex 31.95733364718944 10.000000000000016 18.31527999207294
    vertex 14.999999999999998 9.999999999999998 28.999999999999982
    vertex 32.272019978079015 10.000000000000016 19.075
  endloop
endfacet
facet normal 0.0 1.0 0.0
  outer loop
    vertex 32.272019978079015 10.000000000000016 19.075
    vertex 14.999999999999998 9.999999999999998 28.999999999999982
    vertex 32.772613639262374 10.000000000000016 19.727386360737626
  endloop
endfacet
facet normal 0.0 1.0 0.0
  outer loop
    vertex 32.772613639262374 10.000000000000016 19.727386360737626
    vertex 14.999999999999998 9.999999999999998 28.999999999999982
    vertex 33.425000000000004 10.000000000000016 20.22798002192098
  endloop
endfacet
facet normal 0.0 1.0 0.0
  outer loop
    vertex 33.425000000000004 10.000000000000016 20.22798002192098
    vertex 14.999999999999998 9.999999999999998 28.999999999999982
    vertex 34.18472000792707 10.000000000000016 20.542666352810564
  endloop
endfacet
facet normal 0.0 1.0 0.0
  outer loop
    vertex 34.18472000792707 10.000000000000016 20.542666352810564
    vertex 14.999999999999998 9.999999999999998 28.999999999999982
    vertex 35.0 10.000000000000016 20.65
  endloop
endfacet
facet normal 0.0 1.0 0.0
  outer loop
    vertex 50.0 9.999999999999998 4.00000000000001
    vertex 37.22738636073762 10.000000000000016 15.272613639262374
    vertex 50.0 9.999999999999998 28.999999999999982
  endloop
endfacet
facet normal 0.0 1.0 0.0
  outer loop
    vertex 37.22738636073762 10.000000000000016 15.272613639262374
    vertex 50.0 9.999999999999998 4.00000000000001
    vertex 36.574999999999996 10.000000000000016 14.772019978079015
  endloop
endfacet
facet normal 0.0 1.0 0.0
  outer loop
    vertex 36.574999999999996 10.000000000000016 14.772019978079015
    vertex 50.0 9.999999999999998 4.00000000000001
    vertex 35.81527999207294 10.000000000000016 14.457333647189435
  endloop
endfacet
facet normal 0.0 1.0 0.0
  outer loop
    vertex 35.81527999207294 10.000000000000016 14.457333647189435
    vertex 50.0 9.999999999999998 4.00000000000001
    vertex 35.0 10.000000000000016 14.35
  endloop
endfacet
facet normal 0.0 1.0 0.0
  outer loop
    vertex 50.0 9.999999999999998 28.999999999999982
    vertex 37.22738636073762 10.000000000000016 15.272613639262374
    vertex 37.72798002192098 10.000000000000016 15.924999999999999
  endloop
endfacet
facet normal 0.0 1.0 0.0
  outer loop
    vertex 50.0 9.999999999999998 28.999999999999982
    vertex 37.72798002192098 10.000000000000016 15.924999999999999
    vertex 38.04266635281057 10.000000000000016 16.68472000792706
  endloop
endfacet
facet normal 0.0 1.0 0.0
  outer loop
    vertex 50.0 9.999999999999998 28.999999999999982
    vertex 38.04266635281057 10.000000000000016 16.68472000792706
    vertex 38.15 10.000000000000016 17.5
  endloop
endfacet
facet normal 0.0 1.0 0.0
  outer loop
    vertex 50.0 9.999999999999998 28.999999999999982
    vertex 38.15 10.000000000000016 17.5
    vertex 38.04266635281057 10.000000000000016 18.315279992072938
  endloop
endfacet
facet normal 0.0 1.0 0.0
  outer loop
    vertex 50.0 9.999999999999998 28.999999999999982
    vertex 38.04266635281057 10.000000000000016 18.315279992072938
    vertex 37.72798002192098 10.000000000000016 19.075
  endloop
endfacet
facet normal 0.0 1.0 0.0
  outer loop
    vertex 50.0 9.999999999999998 28.999999999999982
    vertex 37.72798002192098 10.000000000000016 19.075
    vertex 37.22738636073763 10.000000000000016 19.727386360737622
  endloop
endfacet
facet normal 0.0 1.0 0.0
  outer loop
    vertex 50.0 9.999999999999998 28.999999999999982
    vertex 37.22738636073763 10.000000000000016 19.727386360737622
    vertex 36.575 10.000000000000016 20.227980021920978
  endloop
endfacet
facet normal 0.0 1.0 0.0
  outer loop
    vertex 50.0 9.999999999999998 28.999999999999982
    vertex 36.575 10.000000000000016 20.227980021920978
    vertex 35.81527999207294 10.000000000000016 20.542666352810564
  endloop
endfacet
facet normal 0.0 1.0 0.0
  outer loop
    vertex 50.0 9.999999999999998 28.999999999999982
    vertex 35.81527999207294 10.000000000000016 20.542666352810564
    vertex 35.0 10.000000000000016 20.65
  endloop
endfacet
facet normal 0.0 1.0 0.0
  outer loop
    vertex 50.0 9.999999999999998 28.999999999999982
    vertex 35.0 10.000000000000016 20.65
    vertex 14.999999999999998 9.999999999999998 28.999999999999982
  endloop
endfacet
facet normal 0.7071067811865476 0.7071067811865476 0.0
  outer loop
    vertex 9.999999999999998 14.999999999999998 4.00000000000001
    vertex 14.999999999999998 9.999999999999998 28.999999999999982
    vertex 14.999999999999998 9.999999999999998 4.00000000000001
  endloop
endfacet
facet normal 0.7071067811865476 0.7071067811865476 0.0
  outer loop
    vertex 14.999999999999998 9.999999999999998 28.999999999999982
    vertex 9.999999999999998 14.999999999999998 4.00000000000001
    vertex 9.999999999999998 14.999999999999998 28.999999999999982
  endloop
endfacet
facet normal -0.13052619222005193 -0.0 -0.9914448613738105
  outer loop
    vertex 35.81527999207294 10.000000000000016 20.542666352810564
    vertex 35.0 -8.459899447643692e-15 20.65
    vertex 35.0 10.000000000000016 20.65
  endloop
endfacet
facet normal -0.13052619222005193 -0.0 -0.9914448613738105
  outer loop
    vertex 35.0 -8.459899447643692e-15 20.65
    vertex 35.81527999207294 10.000000000000016 20.542666352810564
    vertex 35.81527999207294 -8.459899447643692e-15 20.542666352810564
  endloop
endfacet
facet normal 0.13052619222005193 0.0 -0.9914448613738105
  outer loop
    vertex 35.0 10.000000000000016 20.65
    vertex 34.18472000792707 -8.459899447643692e-15 20.542666352810564
    vertex 34.18472000792707 10.000000000000016 20.542666352810564
  endloop
endfacet
facet normal 0.13052619222005193 0.0 -0.9914448613738105
  outer loop
    vertex 34.18472000792707 -8.459899447643692e-15 20.542666352810564
    vertex 35.0 10.000000000000016 20.65
    vertex 35.0 -8.459899447643692e-15 20.65
  endloop
endfacet
facet normal 0.38268343236508584 0.0 -0.9238795325112885
  outer loop
    vertex 34.18472000792707 10.000000000000016 20.542666352810564
    vertex 33.425000000000004 -8.459899447643692e-15 20.22798002192098
    vertex 33.425000000000004 10.000000000000016 20.22798002192098
  endloop
endfacet
facet normal 0.38268343236508584 0.0 -0.9238795325112885
  outer loop
    vertex 33.425000000000004 -8.459899447643692e-15 20.22798002192098
    vertex 34.18472000792707 10.000000000000016 20.542666352810564
    vertex 34.18472000792707 -8.459899447643692e-15 20.542666352810564
  endloop
endfacet
facet normal 0.608761429008721 0.0 -0.793353340291235
  outer loop
    vertex 33.425000000000004 10.000000000000016 20.22798002192098
    vertex 32.772613639262374 -8.459899447643692e-15 19.727386360737626
    vertex 32.772613639262374 10.000000000000016 19.727386360737626
  endloop
endfacet
facet normal 0.608761429008721 0.0 -0.793353340291235
  outer loop
    vertex 32.772613639262374 -8.459899447643692e-15 19.727386360737626
    vertex 33.425000000000004 10.000000000000016 20.22798002192098
    vertex 33.425000000000004 -8.459899447643692e-15 20.22798002192098
  endloop
endfacet
facet normal 0.793353340291235 0.0 -0.608761429008721
  outer loop
    vertex 32.272019978079015 10.000000000000016 19.075
    vertex 32.772613639262374 -8.459899447643692e-15 19.727386360737626
    vertex 32.272019978079015 -8.459899447643692e-15 19.075
  endloop
endfacet
facet normal 0.793353340291235 0.0 -0.608761429008721
  outer loop
    vertex 32.772613639262374 -8.459899447643692e-15 19.727386360737626
    vertex 32.272019978079015 10.000000000000016 19.075
    vertex 32.772613639262374 10.000000000000016 19.727386360737626
  endloop
endfacet
facet normal 0.9238795325112883 0.0 -0.3826834323650866
  outer loop
    vertex 31.95733364718944 10.000000000000016 18.31527999207294
    vertex 32.272019978079015 -8.459899447643692e-15 19.075
    vertex 31.95733364718944 -8.459899447643692e-15 18.31527999207294
  endloop
endfacet
facet normal 0.9238795325112883 0.0 -0.3826834323650866
  outer loop
    vertex 32.272019978079015 -8.459899447643692e-15 19.075
    vertex 31.95733364718944 10.000000000000016 18.31527999207294
    vertex 32.272019978079015 10.000000000000016 19.075
  endloop
endfacet
facet normal 0.9914448613738097 0.0 -0.1305261922200578
  outer loop
    vertex 31.849999999999998 10.000000000000016 17.5
    vertex 31.95733364718944 -8.459899447643692e-15 18.31527999207294
    vertex 31.849999999999998 -8.459899447643692e-15 17.5
  endloop
endfacet
facet normal 0.9914448613738097 0.0 -0.1305261922200578
  outer loop
    vertex 31.95733364718944 -8.459899447643692e-15 18.31527999207294
    vertex 31.849999999999998 10.000000000000016 17.5
    vertex 31.95733364718944 10.000000000000016 18.31527999207294
  endloop
endfacet
facet normal 0.9914448613738097 0.0 0.13052619222005823
  outer loop
    vertex 31.95733364718944 10.000000000000016 16.68472000792706
    vertex 31.849999999999998 -8.459899447643692e-15 17.5
    vertex 31.95733364718944 -8.459899447643692e-15 16.68472000792706
  endloop
endfacet
facet normal 0.9914448613738097 0.0 0.13052619222005823
  outer loop
    vertex 31.849999999999998 -8.459899447643692e-15 17.5
    vertex 31.95733364718944 10.000000000000016 16.68472000792706
    vertex 31.849999999999998 10.000000000000016 17.5
  endloop
endfacet
facet normal 0.9238795325112887 0.0 0.3826834323650854
  outer loop
    vertex 32.272019978079015 10.000000000000016 15.924999999999999
    vertex 31.95733364718944 -8.459899447643692e-15 16.68472000792706
    vertex 32.272019978079015 -8.459899447643692e-15 15.924999999999999
  endloop
endfacet
facet normal 0.9238795325112887 0.0 0.3826834323650854
  outer loop
    vertex 31.95733364718944 -8.459899447643692e-15 16.68472000792706
    vertex 32.272019978079015 10.000000000000016 15.924999999999999
    vertex 31.95733364718944 10.000000000000016 16.68472000792706
  endloop
endfacet
facet normal 0.793353340291235 0.0 0.608761429008721
  outer loop
    vertex 32.772613639262374 10.000000000000016 15.272613639262374
    vertex 32.272019978079015 -8.459899447643692e-15 15.924999999999999
    vertex 32.772613639262374 -8.459899447643692e-15 15.272613639262374
  endloop
endfacet
facet normal 0.793353340291235 0.0 0.608761429008721
  outer loop
    vertex 32.272019978079015 -8.459899447643692e-15 15.924999999999999
    vertex 32.772613639262374 10.000000000000016 15.272613639262374
    vertex 32.272019978079015 10.000000000000016 15.924999999999999
  endloop
endfacet
facet normal 0.6087614290087189 0.0 0.7933533402912365
  outer loop
    vertex 33.425000000000004 -8.459899447643692e-15 14.772019978079019
    vertex 32.772613639262374 10.000000000000016 15.272613639262374
    vertex 32.772613639262374 -8.459899447643692e-15 15.272613639262374
  endloop
endfacet
facet normal 0.6087614290087189 0.0 0.7933533402912365
  outer loop
    vertex 32.772613639262374 10.000000000000016 15.272613639262374
    vertex 33.425000000000004 -8.459899447643692e-15 14.772019978079019
    vertex 33.425000000000004 10.000000000000016 14.772019978079019
  endloop
endfacet
facet normal 0.38268343236509367 0.0 0.9238795325112853
  outer loop
    vertex 34.184720007927055 -8.459899447643692e-15 14.457333647189435
    vertex 33.425000000000004 10.000000000000016 14.772019978079019
    vertex 33.425000000000004 -8.459899447643692e-15 14.772019978079019
  endloop
endfacet
facet normal 0.38268343236509367 0.0 0.9238795325112853
  outer loop
    vertex 33.425000000000004 10.000000000000016 14.772019978079019
    vertex 34.184720007927055 -8.459899447643692e-15 14.457333647189435
    vertex 34.184720007927055 10.000000000000016 14.457333647189435
  endloop
endfacet
facet normal 0.13052619222005016 0.0 0.9914448613738106
  outer loop
    vertex 35.0 -8.459899447643692e-15 14.35
    vertex 34.184720007927055 10.000000000000016 14.457333647189435
    vertex 34.184720007927055 -8.459899447643692e-15 14.457333647189435
  endloop
endfacet
facet normal 0.13052619222005016 0.0 0.9914448613738106
  outer loop
    vertex 34.184720007927055 10.000000000000016 14.457333647189435
    vertex 35.0 -8.459899447643692e-15 14.35
    vertex 35.0 10.000000000000016 14.35
  endloop
endfacet
facet normal -0.13052619222005193 0.0 0.9914448613738105
  outer loop
    vertex 35.81527999207294 -8.459899447643692e-15 14.457333647189435
    vertex 35.0 10.000000000000016 14.35
    vertex 35.0 -8.459899447643692e-15 14.35
  endloop
endfacet
facet normal -0.13052619222005193 0.0 0.9914448613738105
  outer loop
    vertex 35.0 10.000000000000016 14.35
    vertex 35.81527999207294 -8.459899447643692e-15 14.457333647189435
    vertex 35.81527999207294 10.000000000000016 14.457333647189435
  endloop
endfacet
facet normal -0.3826834323650907 0.0 0.9238795325112865
  outer loop
    vertex 36.574999999999996 -8.459899447643692e-15 14.772019978079015
    vertex 35.81527999207294 10.000000000000016 14.457333647189435
    vertex 35.81527999207294 -8.459899447643692e-15 14.457333647189435
  endloop
endfacet
facet normal -0.3826834323650907 0.0 0.9238795325112865
  outer loop
    vertex 35.81527999207294 10.000000000000016 14.457333647189435
    vertex 36.574999999999996 -8.459899447643692e-15 14.772019978079015
    vertex 36.574999999999996 10.000000000000016 14.772019978079015
  endloop
endfacet
facet normal -0.608761429008721 0.0 0.793353340291235
  outer loop
    vertex 37.22738636073762 -8.459899447643692e-15 15.272613639262374
    vertex 36.574999999999996 10.000000000000016 14.772019978079015
    vertex 36.574999999999996 -8.459899447643692e-15 14.772019978079015
  endloop
endfacet
facet normal -0.608761429008721 0.0 0.793353340291235
  outer loop
    vertex 36.574999999999996 10.000000000000016 14.772019978079015
    vertex 37.22738636073762 -8.459899447643692e-15 15.272613639262374
    vertex 37.22738636073762 10.000000000000016 15.272613639262374
  endloop
endfacet
facet normal -0.793353340291235 0.0 0.608761429008721
  outer loop
    vertex 37.72798002192098 10.000000000000016 15.924999999999999
    vertex 37.22738636073762 -8.459899447643692e-15 15.272613639262374
    vertex 37.72798002192098 -8.459899447643692e-15 15.924999999999999
  endloop
endfacet
facet normal -0.793353340291235 0.0 0.608761429008721
  outer loop
    vertex 37.22738636073762 -8.459899447643692e-15 15.272613639262374
    vertex 37.72798002192098 10.000000000000016 15.924999999999999
    vertex 37.22738636073762 10.000000000000016 15.272613639262374
  endloop
endfacet
facet normal -0.9238795325112839 0.0 0.38268343236509705
  outer loop
    vertex 38.04266635281057 10.000000000000016 16.68472000792706
    vertex 37.72798002192098 -8.459899447643692e-15 15.924999999999999
    vertex 38.04266635281057 -8.459899447643692e-15 16.68472000792706
  endloop
endfacet
facet normal -0.9238795325112839 0.0 0.38268343236509705
  outer loop
    vertex 37.72798002192098 -8.459899447643692e-15 15.924999999999999
    vertex 38.04266635281057 10.000000000000016 16.68472000792706
    vertex 37.72798002192098 10.000000000000016 15.924999999999999
  endloop
endfacet
facet normal -0.9914448613738115 0.0 0.13052619222004475
  outer loop
    vertex 38.15 10.000000000000016 17.5
    vertex 38.04266635281057 -8.459899447643692e-15 16.68472000792706
    vertex 38.15 -8.459899447643692e-15 17.5
  endloop
endfacet
facet normal -0.9914448613738115 0.0 0.13052619222004475
  outer loop
    vertex 38.04266635281057 -8.459899447643692e-15 16.68472000792706
    vertex 38.15 10.000000000000016 17.5
    vertex 38.04266635281057 10.000000000000016 16.68472000792706
  endloop
endfacet
facet normal -0.9914448613738115 -0.0 -0.13052619222004475
  outer loop
    vertex 38.04266635281057 10.000000000000016 18.315279992072938
    vertex 38.15 -8.459899447643692e-15 17.5
    vertex 38.04266635281057 -8.459899447643692e-15 18.315279992072938
  endloop
endfacet
facet normal -0.9914448613738115 -0.0 -0.13052619222004475
  outer loop
    vertex 38.15 -8.459899447643692e-15 17.5
    vertex 38.04266635281057 10.000000000000016 18.315279992072938
    vertex 38.15 10.000000000000016 17.5
  endloop
endfacet
facet normal -0.9238795325112839 -0.0 -0.38268343236509705
  outer loop
    vertex 37.72798002192098 10.000000000000016 19.075
    vertex 38.04266635281057 -8.459899447643692e-15 18.315279992072938
    vertex 37.72798002192098 -8.459899447643692e-15 19.075
  endloop
endfacet
facet normal -0.9238795325112839 -0.0 -0.38268343236509705
  outer loop
    vertex 38.04266635281057 -8.459899447643692e-15 18.315279992072938
    vertex 37.72798002192098 10.000000000000016 19.075
    vertex 38.04266635281057 10.000000000000016 18.315279992072938
  endloop
endfacet
facet normal -0.7933533402912404 -0.0 -0.6087614290087141
  outer loop
    vertex 37.22738636073763 10.000000000000016 19.727386360737622
    vertex 37.72798002192098 -8.459899447643692e-15 19.075
    vertex 37.22738636073763 -8.459899447643692e-15 19.727386360737622
  endloop
endfacet
facet normal -0.7933533402912404 -0.0 -0.6087614290087141
  outer loop
    vertex 37.72798002192098 -8.459899447643692e-15 19.075
    vertex 37.22738636073763 10.000000000000016 19.727386360737622
    vertex 37.72798002192098 10.000000000000016 19.075
  endloop
endfacet
facet normal -0.608761429008721 -0.0 -0.793353340291235
  outer loop
    vertex 37.22738636073763 10.000000000000016 19.727386360737622
    vertex 36.575 -8.459899447643692e-15 20.227980021920978
    vertex 36.575 10.000000000000016 20.227980021920978
  endloop
endfacet
facet normal -0.608761429008721 -0.0 -0.793353340291235
  outer loop
    vertex 36.575 -8.459899447643692e-15 20.227980021920978
    vertex 37.22738636073763 10.000000000000016 19.727386360737622
    vertex 37.22738636073763 -8.459899447643692e-15 19.727386360737622
  endloop
endfacet
facet normal -0.3826834323650888 -0.0 -0.9238795325112874
  outer loop
    vertex 36.575 10.000000000000016 20.227980021920978
    vertex 35.81527999207294 -8.459899447643692e-15 20.542666352810564
    vertex 35.81527999207294 10.000000000000016 20.542666352810564
  endloop
endfacet
facet normal -0.3826834323650888 -0.0 -0.9238795325112874
  outer loop
    vertex 35.81527999207294 -8.459899447643692e-15 20.542666352810564
    vertex 36.575 10.000000000000016 20.227980021920978
    vertex 36.575 -8.459899447643692e-15 20.227980021920978
  endloop
endfacet
facet normal 0.0 0.608761429008721 -0.7933533402912348
  outer loop
    vertex 10.00000000000001 25.074999999999992 20.227980021920978
    vertex 1.127986593019159e-14 24.422613639262366 19.727386360737622
    vertex 1.127986593019159e-14 25.074999999999992 20.227980021920978
  endloop
endfacet
facet normal 0.0 0.608761429008721 -0.7933533402912348
  outer loop
    vertex 1.127986593019159e-14 24.422613639262366 19.727386360737622
    vertex 10.00000000000001 25.074999999999992 20.227980021920978
    vertex 10.00000000000001 24.422613639262366 19.727386360737622
  endloop
endfacet
facet normal 0.0 0.3826834323650935 -0.9238795325112852
  outer loop
    vertex 10.00000000000001 25.834720007927046 20.542666352810564
    vertex 1.127986593019159e-14 25.074999999999992 20.227980021920978
    vertex 1.127986593019159e-14 25.834720007927046 20.542666352810564
  endloop
endfacet
facet normal 0.0 0.3826834323650935 -0.9238795325112852
  outer loop
    vertex 1.127986593019159e-14 25.074999999999992 20.227980021920978
    vertex 10.00000000000001 25.834720007927046 20.542666352810564
    vertex 10.00000000000001 25.074999999999992 20.227980021920978
  endloop
endfacet
facet normal 0.0 0.13052619222005016 -0.9914448613738107
  outer loop
    vertex 10.00000000000001 26.649999999999995 20.65
    vertex 1.127986593019159e-14 25.834720007927046 20.542666352810564
    vertex 1.127986593019159e-14 26.649999999999995 20.65
  endloop
endfacet
facet normal 0.0 0.13052619222005016 -0.9914448613738107
  outer loop
    vertex 1.127986593019159e-14 25.834720007927046 20.542666352810564
    vertex 10.00000000000001 26.649999999999995 20.65
    vertex 10.00000000000001 25.834720007927046 20.542666352810564
  endloop
endfacet
facet normal 0.0 -0.13052619222005193 -0.9914448613738105
  outer loop
    vertex 10.00000000000001 27.465279992072933 20.542666352810564
    vertex 1.127986593019159e-14 26.649999999999995 20.65
    vertex 1.127986593019159e-14 27.465279992072933 20.542666352810564
  endloop
endfacet
facet normal 0.0 -0.13052619222005193 -0.9914448613738105
  outer loop
    vertex 1.127986593019159e-14 26.649999999999995 20.65
    vertex 10.00000000000001 27.465279992072933 20.542666352810564
    vertex 10.00000000000001 26.649999999999995 20.65
  endloop
endfacet
facet normal 0.0 -0.3826834323650907 -0.9238795325112865
  outer loop
    vertex 10.00000000000001 28.224999999999987 20.22798002192098
    vertex 1.127986593019159e-14 27.465279992072933 20.542666352810564
    vertex 1.127986593019159e-14 28.224999999999987 20.22798002192098
  endloop
endfacet
facet normal 0.0 -0.3826834323650907 -0.9238795325112865
  outer loop
    vertex 1.127986593019159e-14 27.465279992072933 20.542666352810564
    vertex 10.00000000000001 28.224999999999987 20.22798002192098
    vertex 10.00000000000001 27.465279992072933 20.542666352810564
  endloop
endfacet
facet normal 0.0 -0.608761429008721 -0.7933533402912348
  outer loop
    vertex 10.00000000000001 28.877386360737614 19.727386360737626
    vertex 1.127986593019159e-14 28.224999999999987 20.22798002192098
    vertex 1.127986593019159e-14 28.877386360737614 19.727386360737626
  endloop
endfacet
facet normal 0.0 -0.608761429008721 -0.7933533402912348
  outer loop
    vertex 1.127986593019159e-14 28.224999999999987 20.22798002192098
    vertex 10.00000000000001 28.877386360737614 19.727386360737626
    vertex 10.00000000000001 28.224999999999987 20.22798002192098
  endloop
endfacet
facet normal 0.0 -0.7933533402912348 -0.608761429008721
  outer loop
    vertex 10.00000000000001 28.877386360737614 19.727386360737626
    vertex 1.127986593019159e-14 29.377980021920973 19.075
    vertex 10.00000000000001 29.377980021920973 19.075
  endloop
endfacet
facet normal 0.0 -0.7933533402912348 -0.608761429008721
  outer loop
    vertex 1.127986593019159e-14 29.377980021920973 19.075
    vertex 10.00000000000001 28.877386360737614 19.727386360737626
    vertex 1.127986593019159e-14 28.877386360737614 19.727386360737626
  endloop
endfacet
facet normal 0.0 -0.9238795325112833 -0.38268343236509816
  outer loop
    vertex 10.00000000000001 29.377980021920973 19.075
    vertex 1.127986593019159e-14 29.692666352810562 18.31527999207294
    vertex 10.00000000000001 29.692666352810562 18.31527999207294
  endloop
endfacet
facet normal 0.0 -0.9238795325112833 -0.38268343236509816
  outer loop
    vertex 1.127986593019159e-14 29.692666352810562 18.31527999207294
    vertex 10.00000000000001 29.377980021920973 19.075
    vertex 1.127986593019159e-14 29.377980021920973 19.075
  endloop
endfacet
facet normal 0.0 -0.9914448613738114 -0.1305261922200443
  outer loop
    vertex 10.00000000000001 29.692666352810562 18.31527999207294
    vertex 1.127986593019159e-14 29.79999999999999 17.5
    vertex 10.00000000000001 29.79999999999999 17.5
  endloop
endfacet
facet normal 0.0 -0.9914448613738114 -0.1305261922200443
  outer loop
    vertex 1.127986593019159e-14 29.79999999999999 17.5
    vertex 10.00000000000001 29.692666352810562 18.31527999207294
    vertex 1.127986593019159e-14 29.692666352810562 18.31527999207294
  endloop
endfacet
facet normal 0.0 -0.9914448613738114 0.13052619222004475
  outer loop
    vertex 10.00000000000001 29.79999999999999 17.5
    vertex 1.127986593019159e-14 29.692666352810562 16.68472000792706
    vertex 10.00000000000001 29.692666352810562 16.68472000792706
  endloop
endfacet
facet normal 0.0 -0.9914448613738114 0.13052619222004475
  outer loop
    vertex 1.127986593019159e-14 29.692666352810562 16.68472000792706
    vertex 10.00000000000001 29.79999999999999 17.5
    vertex 1.127986593019159e-14 29.79999999999999 17.5
  endloop
endfacet
facet normal 0.0 -0.9238795325112839 0.3826834323650971
  outer loop
    vertex 10.00000000000001 29.692666352810562 16.68472000792706
    vertex 1.127986593019159e-14 29.377980021920973 15.924999999999999
    vertex 10.00000000000001 29.377980021920973 15.924999999999999
  endloop
endfacet
facet normal 0.0 -0.9238795325112839 0.3826834323650971
  outer loop
    vertex 1.127986593019159e-14 29.377980021920973 15.924999999999999
    vertex 10.00000000000001 29.692666352810562 16.68472000792706
    vertex 1.127986593019159e-14 29.692666352810562 16.68472000792706
  endloop
endfacet
facet normal 0.0 -0.7933533402912348 0.608761429008721
  outer loop
    vertex 10.00000000000001 29.377980021920973 15.924999999999999
    vertex 1.127986593019159e-14 28.877386360737614 15.272613639262374
    vertex 10.00000000000001 28.877386360737614 15.272613639262374
  endloop
endfacet
facet normal 0.0 -0.7933533402912348 0.608761429008721
  outer loop
    vertex 1.127986593019159e-14 28.877386360737614 15.272613639262374
    vertex 10.00000000000001 29.377980021920973 15.924999999999999
    vertex 1.127986593019159e-14 29.377980021920973 15.924999999999999
  endloop
endfacet
facet normal 0.0 -0.6087614290087255 0.7933533402912315
  outer loop
    vertex 10.00000000000001 28.224999999999998 14.772019978079019
    vertex 1.127986593019159e-14 28.877386360737614 15.272613639262374
    vertex 1.127986593019159e-14 28.224999999999998 14.772019978079019
  endloop
endfacet
facet normal 0.0 -0.6087614290087255 0.7933533402912315
  outer loop
    vertex 1.127986593019159e-14 28.877386360737614 15.272613639262374
    vertex 10.00000000000001 28.224999999999998 14.772019978079019
    vertex 10.00000000000001 28.877386360737614 15.272613639262374
  endloop
endfacet
facet normal 0.0 -0.3826834323650887 0.9238795325112873
  outer loop
    vertex 10.00000000000001 27.465279992072933 14.457333647189435
    vertex 1.127986593019159e-14 28.224999999999998 14.772019978079019
    vertex 1.127986593019159e-14 27.465279992072933 14.457333647189435
  endloop
endfacet
facet normal 0.0 -0.3826834323650887 0.9238795325112873
  outer loop
    vertex 1.127986593019159e-14 28.224999999999998 14.772019978079019
    vertex 10.00000000000001 27.465279992072933 14.457333647189435
    vertex 10.00000000000001 28.224999999999998 14.772019978079019
  endloop
endfacet
facet normal 0.0 -0.13052619222005193 0.9914448613738105
  outer loop
    vertex 10.00000000000001 26.649999999999995 14.35
    vertex 1.127986593019159e-14 27.465279992072933 14.457333647189435
    vertex 1.127986593019159e-14 26.649999999999995 14.35
  endloop
endfacet
facet normal 0.0 -0.13052619222005193 0.9914448613738105
  outer loop
    vertex 1.127986593019159e-14 27.465279992072933 14.457333647189435
    vertex 10.00000000000001 26.649999999999995 14.35
    vertex 10.00000000000001 27.465279992072933 14.457333647189435
  endloop
endfacet
facet normal 0.0 0.13052619222005016 0.9914448613738107
  outer loop
    vertex 10.00000000000001 25.834720007927046 14.457333647189435
    vertex 1.127986593019159e-14 26.649999999999995 14.35
    vertex 1.127986593019159e-14 25.834720007927046 14.457333647189435
  endloop
endfacet
facet normal 0.0 0.13052619222005016 0.9914448613738107
  outer loop
    vertex 1.127986593019159e-14 26.649999999999995 14.35
    vertex 10.00000000000001 25.834720007927046 14.457333647189435
    vertex 10.00000000000001 26.649999999999995 14.35
  endloop
endfacet
facet normal 0.0 0.3826834323650907 0.9238795325112865
  outer loop
    vertex 10.00000000000001 25.074999999999992 14.772019978079015
    vertex 1.127986593019159e-14 25.834720007927046 14.457333647189435
    vertex 1.127986593019159e-14 25.074999999999992 14.772019978079015
  endloop
endfacet
facet normal 0.0 0.3826834323650907 0.9238795325112865
  outer loop
    vertex 1.127986593019159e-14 25.834720007927046 14.457333647189435
    vertex 10.00000000000001 25.074999999999992 14.772019978079015
    vertex 10.00000000000001 25.834720007927046 14.457333647189435
  endloop
endfacet
facet normal 0.0 0.608761429008721 0.7933533402912348
  outer loop
    vertex 10.00000000000001 24.422613639262366 15.272613639262374
    vertex 1.127986593019159e-14 25.074999999999992 14.772019978079015
    vertex 1.127986593019159e-14 24.422613639262366 15.272613639262374
  endloop
endfacet
facet normal 0.0 0.608761429008721 0.7933533402912348
  outer loop
    vertex 1.127986593019159e-14 25.074999999999992 14.772019978079015
    vertex 10.00000000000001 24.422613639262366 15.272613639262374
    vertex 10.00000000000001 25.074999999999992 14.772019978079015
  endloop
endfacet
facet normal 0.0 0.7933533402912348 0.608761429008721
  outer loop
    vertex 1.127986593019159e-14 23.922019978079007 15.924999999999999
    vertex 10.00000000000001 24.422613639262366 15.272613639262374
    vertex 1.127986593019159e-14 24.422613639262366 15.272613639262374
  endloop
endfacet
facet normal 0.0 0.7933533402912348 0.608761429008721
  outer loop
    vertex 10.00000000000001 24.422613639262366 15.272613639262374
    vertex 1.127986593019159e-14 23.922019978079007 15.924999999999999
    vertex 10.00000000000001 23.922019978079007 15.924999999999999
  endloop
endfacet
facet normal 0.0 0.9238795325112886 0.3826834323650853
  outer loop
    vertex 1.127986593019159e-14 23.607333647189428 16.68472000792706
    vertex 10.00000000000001 23.922019978079007 15.924999999999999
    vertex 1.127986593019159e-14 23.922019978079007 15.924999999999999
  endloop
endfacet
facet normal 0.0 0.9238795325112886 0.3826834323650853
  outer loop
    vertex 10.00000000000001 23.922019978079007 15.924999999999999
    vertex 1.127986593019159e-14 23.607333647189428 16.68472000792706
    vertex 10.00000000000001 23.607333647189428 16.68472000792706
  endloop
endfacet
facet normal 0.0 0.9914448613738096 0.1305261922200582
  outer loop
    vertex 1.127986593019159e-14 23.49999999999999 17.5
    vertex 10.00000000000001 23.607333647189428 16.68472000792706
    vertex 1.127986593019159e-14 23.607333647189428 16.68472000792706
  endloop
endfacet
facet normal 0.0 0.9914448613738096 0.1305261922200582
  outer loop
    vertex 10.00000000000001 23.607333647189428 16.68472000792706
    vertex 1.127986593019159e-14 23.49999999999999 17.5
    vertex 10.00000000000001 23.49999999999999 17.5
  endloop
endfacet
facet normal 0.0 0.9914448613738096 -0.1305261922200582
  outer loop
    vertex 1.127986593019159e-14 23.607333647189428 18.315279992072938
    vertex 10.00000000000001 23.49999999999999 17.5
    vertex 1.127986593019159e-14 23.49999999999999 17.5
  endloop
endfacet
facet normal 0.0 0.9914448613738096 -0.1305261922200582
  outer loop
    vertex 10.00000000000001 23.49999999999999 17.5
    vertex 1.127986593019159e-14 23.607333647189428 18.315279992072938
    vertex 10.00000000000001 23.607333647189428 18.315279992072938
  endloop
endfacet
facet normal 0.0 0.9238795325112886 -0.3826834323650853
  outer loop
    vertex 1.127986593019159e-14 23.922019978079007 19.075
    vertex 10.00000000000001 23.607333647189428 18.315279992072938
    vertex 1.127986593019159e-14 23.607333647189428 18.315279992072938
  endloop
endfacet
facet normal 0.0 0.9238795325112886 -0.3826834323650853
  outer loop
    vertex 10.00000000000001 23.607333647189428 18.315279992072938
    vertex 1.127986593019159e-14 23.922019978079007 19.075
    vertex 10.00000000000001 23.922019978079007 19.075
  endloop
endfacet
facet normal 0.0 0.7933533402912336 -0.6087614290087227
  outer loop
    vertex 1.127986593019159e-14 24.422613639262366 19.727386360737622
    vertex 10.00000000000001 23.922019978079007 19.075
    vertex 1.127986593019159e-14 23.922019978079007 19.075
  endloop
endfacet
facet normal 0.0 0.7933533402912336 -0.6087614290087227
  outer loop
    vertex 10.00000000000001 23.922019978079007 19.075
    vertex 1.127986593019159e-14 24.422613639262366 19.727386360737622
    vertex 10.00000000000001 24.422613639262366 19.727386360737622
  endloop
endfacet
facet normal 1.0 2.0453764602567204e-16 -1.0997603668712135e-16
  outer loop
    vertex 9.999999999999998 14.999999999999998 4.00000000000001
    vertex 10.00000000000001 23.922019978079007 15.924999999999999
    vertex 9.999999999999998 14.999999999999998 28.999999999999982
  endloop
endfacet
facet normal 1.0 2.0453764602567204e-16 -1.0997603668712135e-16
  outer loop
    vertex 10.00000000000001 23.922019978079007 15.924999999999999
    vertex 9.999999999999998 14.999999999999998 4.00000000000001
    vertex 10.00000000000001 24.422613639262366 15.272613639262374
  endloop
endfacet
facet normal 1.0 2.0453764602567204e-16 -1.0997603668712135e-16
  outer loop
    vertex 10.00000000000001 24.422613639262366 15.272613639262374
    vertex 9.999999999999998 14.999999999999998 4.00000000000001
    vertex 10.00000000000001 25.074999999999992 14.772019978079015
  endloop
endfacet
facet normal 1.0 2.0453764602567204e-16 -1.0997603668712135e-16
  outer loop
    vertex 10.00000000000001 25.074999999999992 14.772019978079015
    vertex 9.999999999999998 14.999999999999998 4.00000000000001
    vertex 9.999999999999998 50.00000000000001 4.00000000000001
  endloop
endfacet
facet normal 1.0 2.0453764602567204e-16 -1.0997603668712135e-16
  outer loop
    vertex 9.999999999999998 14.999999999999998 28.999999999999982
    vertex 10.00000000000001 23.922019978079007 15.924999999999999
    vertex 10.00000000000001 23.607333647189428 16.68472000792706
  endloop
endfacet
facet normal 1.0 2.0453764602567204e-16 -1.0997603668712135e-16
  outer loop
    vertex 9.999999999999998 14.999999999999998 28.999999999999982
    vertex 10.00000000000001 23.607333647189428 16.68472000792706
    vertex 10.00000000000001 23.49999999999999 17.5
  endloop
endfacet
facet normal 1.0 2.0453764602567204e-16 -1.0997603668712135e-16
  outer loop
    vertex 10.00000000000001 25.074999999999992 14.772019978079015
    vertex 9.999999999999998 50.00000000000001 4.00000000000001
    vertex 10.00000000000001 25.834720007927046 14.457333647189435
  endloop
endfacet
facet normal 1.0 2.0453764602567204e-16 -1.0997603668712135e-16
  outer loop
    vertex 10.00000000000001 25.834720007927046 14.457333647189435
    vertex 9.999999999999998 50.00000000000001 4.00000000000001
    vertex 10.00000000000001 26.649999999999995 14.35
  endloop
endfacet
facet normal 1.0 2.0453764602567204e-16 -1.0997603668712135e-16
  outer loop
    vertex 10.00000000000001 26.649999999999995 14.35
    vertex 9.999999999999998 50.00000000000001 4.00000000000001
    vertex 10.00000000000001 27.465279992072933 14.457333647189435
  endloop
endfacet
facet normal 1.0 2.0453764602567204e-16 -1.0997603668712135e-16
  outer loop
    vertex 10.00000000000001 27.465279992072933 14.457333647189435
    vertex 9.999999999999998 50.00000000000001 4.00000000000001
    vertex 10.00000000000001 28.224999999999998 14.772019978079019
  endloop
endfacet
facet normal 1.0 2.0453764602567204e-16 -1.0997603668712135e-16
  outer loop
    vertex 10.00000000000001 28.224999999999998 14.772019978079019
    vertex 9.999999999999998 50.00000000000001 4.00000000000001
    vertex 10.00000000000001 28.877386360737614 15.272613639262374
  endloop
endfacet
facet normal 1.0 2.0453764602567204e-16 -1.0997603668712135e-16
  outer loop
    vertex 10.00000000000001 28.877386360737614 15.272613639262374
    vertex 9.999999999999998 50.00000000000001 4.00000000000001
    vertex 10.00000000000001 29.377980021920973 15.924999999999999
  endloop
endfacet
facet normal 1.0 2.0453764602567204e-16 -1.0997603668712135e-16
  outer loop
    vertex 10.00000000000001 29.377980021920973 15.924999999999999
    vertex 9.999999999999998 50.00000000000001 4.00000000000001
    vertex 10.00000000000001 29.692666352810562 16.68472000792706
  endloop
endfacet
facet normal 1.0 2.0453764602567204e-16 -1.0997603668712135e-16
  outer loop
    vertex 10.00000000000001 29.692666352810562 16.68472000792706
    vertex 9.999999999999998 50.00000000000001 4.00000000000001
    vertex 10.00000000000001 29.79999999999999 17.5
  endloop
endfacet
facet normal 1.0 2.0453764602567204e-16 -1.0997603668712135e-16
  outer loop
    vertex 9.999999999999998 14.999999999999998 28.999999999999982
    vertex 10.00000000000001 25.834720007927046 20.542666352810564
    vertex 9.999999999999998 50.00000000000001 28.999999999999982
  endloop
endfacet
facet normal 1.0 2.0453764602567204e-16 -1.0997603668712135e-16
  outer loop
    vertex 10.00000000000001 25.834720007927046 20.542666352810564
    vertex 9.999999999999998 14.999999999999998 28.999999999999982
    vertex 10.00000000000001 25.074999999999992 20.227980021920978
  endloop
endfacet
facet normal 1.0 2.0453764602567204e-16 -1.0997603668712135e-16
  outer loop
    vertex 10.00000000000001 25.074999999999992 20.227980021920978
    vertex 9.999999999999998 14.999999999999998 28.999999999999982
    vertex 10.00000000000001 24.422613639262366 19.727386360737622
  endloop
endfacet
facet normal 1.0 2.0453764602567204e-16 -1.0997603668712135e-16
  outer loop
    vertex 10.00000000000001 24.422613639262366 19.727386360737622
    vertex 9.999999999999998 14.999999999999998 28.999999999999982
    vertex 10.00000000000001 23.922019978079007 19.075
  endloop
endfacet
facet normal 1.0 2.0453764602567204e-16 -1.0997603668712135e-16
  outer loop
    vertex 10.00000000000001 23.922019978079007 19.075
    vertex 9.999999999999998 14.999999999999998 28.999999999999982
    vertex 10.00000000000001 23.607333647189428 18.315279992072938
  endloop
endfacet
facet normal 1.0 2.0453764602567204e-16 -1.0997603668712135e-16
  outer loop
    vertex 10.00000000000001 23.607333647189428 18.315279992072938
    vertex 9.999999999999998 14.999999999999998 28.999999999999982
    vertex 10.00000000000001 23.49999999999999 17.5
  endloop
endfacet
facet normal 1.0 2.0453764602567204e-16 -1.0997603668712135e-16
  outer loop
    vertex 9.999999999999998 50.00000000000001 28.999999999999982
    vertex 10.00000000000001 25.834720007927046 20.542666352810564
    vertex 10.00000000000001 26.649999999999995 20.65
  endloop
endfacet
facet normal 1.0 2.0453764602567204e-16 -1.0997603668712135e-16
  outer loop
    vertex 9.999999999999998 50.00000000000001 28.999999999999982
    vertex 10.00000000000001 26.649999999999995 20.65
    vertex 10.00000000000001 27.465279992072933 20.542666352810564
  endloop
endfacet
facet normal 1.0 2.0453764602567204e-16 -1.0997603668712135e-16
  outer loop
    vertex 9.999999999999998 50.00000000000001 28.999999999999982
    vertex 10.00000000000001 27.465279992072933 20.542666352810564
    vertex 10.00000000000001 28.224999999999987 20.22798002192098
  endloop
endfacet
facet normal 1.0 2.0453764602567204e-16 -1.0997603668712135e-16
  outer loop
    vertex 9.999999999999998 50.00000000000001 28.999999999999982
    vertex 10.00000000000001 28.224999999999987 20.22798002192098
    vertex 10.00000000000001 28.877386360737614 19.727386360737626
  endloop
endfacet
facet normal 1.0 2.0453764602567204e-16 -1.0997603668712135e-16
  outer loop
    vertex 9.999999999999998 50.00000000000001 28.999999999999982
    vertex 10.00000000000001 28.877386360737614 19.727386360737626
    vertex 10.00000000000001 29.377980021920973 19.075
  endloop
endfacet
facet normal 1.0 2.0453764602567204e-16 -1.0997603668712135e-16
  outer loop
    vertex 9.999999999999998 50.00000000000001 28.999999999999982
    vertex 10.00000000000001 29.377980021920973 19.075
    vertex 10.00000000000001 29.692666352810562 18.31527999207294
  endloop
endfacet
facet normal 1.0 2.0453764602567204e-16 -1.0997603668712135e-16
  outer loop
    vertex 9.999999999999998 50.00000000000001 28.999999999999982
    vertex 10.00000000000001 29.692666352810562 18.31527999207294
    vertex 10.00000000000001 29.79999999999999 17.5
  endloop
endfacet
facet normal 1.0 2.0453764602567204e-16 -1.0997603668712135e-16
  outer loop
    vertex 9.999999999999998 50.00000000000001 28.999999999999982
    vertex 10.00000000000001 29.79999999999999 17.5
    vertex 9.999999999999998 50.00000000000001 4.00000000000001
  endloop
endfacet
facet normal -1.0 1.5479287501327563e-17 1.5811342111633434e-16
  outer loop
    vertex 0.0 0.0 28.999999999999996
    vertex 1.127986593019159e-14 25.074999999999992 20.227980021920978
    vertex 0.0 0.0 4.499999999999999
  endloop
endfacet
facet normal -1.0 1.5479287501327563e-17 1.5811342111633434e-16
  outer loop
    vertex 1.127986593019159e-14 25.074999999999992 20.227980021920978
    vertex 0.0 0.0 28.999999999999996
    vertex 1.127986593019159e-14 25.834720007927046 20.542666352810564
  endloop
endfacet
facet normal -1.0 1.5479287501327563e-17 1.5811342111633434e-16
  outer loop
    vertex 1.127986593019159e-14 25.834720007927046 20.542666352810564
    vertex 0.0 0.0 28.999999999999996
    vertex 0.0 60.0 28.999999999999996
  endloop
endfacet
facet normal -1.0 1.5479287501327563e-17 1.5811342111633434e-16
  outer loop
    vertex 0.0 0.0 4.499999999999999
    vertex 1.127986593019159e-14 25.074999999999992 20.227980021920978
    vertex 1.127986593019159e-14 24.422613639262366 19.727386360737622
  endloop
endfacet
facet normal -1.0 1.5479287501327563e-17 1.5811342111633434e-16
  outer loop
    vertex 0.0 0.0 4.499999999999999
    vertex 1.127986593019159e-14 24.422613639262366 19.727386360737622
    vertex 1.127986593019159e-14 23.922019978079007 19.075
  endloop
endfacet
facet normal -1.0 1.5479287501327563e-17 1.5811342111633434e-16
  outer loop
    vertex 0.0 0.0 4.499999999999999
    vertex 1.127986593019159e-14 23.922019978079007 19.075
    vertex 1.127986593019159e-14 23.607333647189428 18.315279992072938
  endloop
endfacet
facet normal -1.0 1.5479287501327563e-17 1.5811342111633434e-16
  outer loop
    vertex 0.0 0.0 4.499999999999999
    vertex 1.127986593019159e-14 23.607333647189428 18.315279992072938
    vertex 1.127986593019159e-14 23.49999999999999 17.5
  endloop
endfacet
facet normal -1.0 1.5479287501327563e-17 1.5811342111633434e-16
  outer loop
    vertex 1.127986593019159e-14 25.834720007927046 20.542666352810564
    vertex 0.0 60.0 28.999999999999996
    vertex 1.127986593019159e-14 26.649999999999995 20.65
  endloop
endfacet
facet normal -1.0 1.5479287501327563e-17 1.5811342111633434e-16
  outer loop
    vertex 1.127986593019159e-14 26.649999999999995 20.65
    vertex 0.0 60.0 28.999999999999996
    vertex 1.127986593019159e-14 27.465279992072933 20.542666352810564
  endloop
endfacet
facet normal -1.0 1.5479287501327563e-17 1.5811342111633434e-16
  outer loop
    vertex 1.127986593019159e-14 27.465279992072933 20.542666352810564
    vertex 0.0 60.0 28.999999999999996
    vertex 1.127986593019159e-14 28.224999999999987 20.22798002192098
  endloop
endfacet
facet normal -1.0 1.5479287501327563e-17 1.5811342111633434e-16
  outer loop
    vertex 1.127986593019159e-14 28.224999999999987 20.22798002192098
    vertex 0.0 60.0 28.999999999999996
    vertex 1.127986593019159e-14 28.877386360737614 19.727386360737626
  endloop
endfacet
facet normal -1.0 1.5479287501327563e-17 1.5811342111633434e-16
  outer loop
    vertex 1.127986593019159e-14 28.877386360737614 19.727386360737626
    vertex 0.0 60.0 28.999999999999996
    vertex 1.127986593019159e-14 29.377980021920973 19.075
  endloop
endfacet
facet normal -1.0 1.5479287501327563e-17 1.5811342111633434e-16
  outer loop
    vertex 1.127986593019159e-14 29.377980021920973 19.075
    vertex 0.0 60.0 28.999999999999996
    vertex 1.127986593019159e-14 29.692666352810562 18.31527999207294
  endloop
endfacet
facet normal -1.0 1.5479287501327563e-17 1.5811342111633434e-16
  outer loop
    vertex 1.127986593019159e-14 29.692666352810562 18.31527999207294
    vertex 0.0 60.0 28.999999999999996
    vertex 1.127986593019159e-14 29.79999999999999 17.5
  endloop
endfacet
facet normal -1.0 1.5479287501327563e-17 1.5811342111633434e-16
  outer loop
    vertex 0.0 0.0 4.499999999999999
    vertex 1.127986593019159e-14 25.834720007927046 14.457333647189435
    vertex 0.0 60.0 4.499999999999999
  endloop
endfacet
facet normal -1.0 1.5479287501327563e-17 1.5811342111633434e-16
  outer loop
    vertex 1.127986593019159e-14 25.834720007927046 14.457333647189435
    vertex 0.0 0.0 4.499999999999999
    vertex 1.127986593019159e-14 25.074999999999992 14.772019978079015
  endloop
endfacet
facet normal -1.0 1.5479287501327563e-17 1.5811342111633434e-16
  outer loop
    vertex 1.127986593019159e-14 25.074999999999992 14.772019978079015
    vertex 0.0 0.0 4.499999999999999
    vertex 1.127986593019159e-14 24.422613639262366 15.272613639262374
  endloop
endfacet
facet normal -1.0 1.5479287501327563e-17 1.5811342111633434e-16
  outer loop
    vertex 1.127986593019159e-14 24.422613639262366 15.272613639262374
    vertex 0.0 0.0 4.499999999999999
    vertex 1.127986593019159e-14 23.922019978079007 15.924999999999999
  endloop
endfacet
facet normal -1.0 1.5479287501327563e-17 1.5811342111633434e-16
  outer loop
    vertex 1.127986593019159e-14 23.922019978079007 15.924999999999999
    vertex 0.0 0.0 4.499999999999999
    vertex 1.127986593019159e-14 23.607333647189428 16.68472000792706
  endloop
endfacet
facet normal -1.0 1.5479287501327563e-17 1.5811342111633434e-16
  outer loop
    vertex 1.127986593019159e-14 23.607333647189428 16.68472000792706
    vertex 0.0 0.0 4.499999999999999
    vertex 1.127986593019159e-14 23.49999999999999 17.5
  endloop
endfacet
facet normal -1.0 1.5479287501327563e-17 1.5811342111633434e-16
  outer loop
    vertex 0.0 60.0 4.499999999999999
    vertex 1.127986593019159e-14 25.834720007927046 14.457333647189435
    vertex 1.127986593019159e-14 26.649999999999995 14.35
  endloop
endfacet
facet normal -1.0 1.5479287501327563e-17 1.5811342111633434e-16
  outer loop
    vertex 0.0 60.0 4.499999999999999
    vertex 1.127986593019159e-14 26.649999999999995 14.35
    vertex 1.127986593019159e-14 27.465279992072933 14.457333647189435
  endloop
endfacet
facet normal -1.0 1.5479287501327563e-17 1.5811342111633434e-16
  outer loop
    vertex 0.0 60.0 4.499999999999999
    vertex 1.127986593019159e-14 27.465279992072933 14.457333647189435
    vertex 1.127986593019159e-14 28.224999999999998 14.772019978079019
  endloop
endfacet
facet normal -1.0 1.5479287501327563e-17 1.5811342111633434e-16
  outer loop
    vertex 0.0 60.0 4.499999999999999
    vertex 1.127986593019159e-14 28.224999999999998 14.772019978079019
    vertex 1.127986593019159e-14 28.877386360737614 15.272613639262374
  endloop
endfacet
facet normal -1.0 1.5479287501327563e-17 1.5811342111633434e-16
  outer loop
    vertex 0.0 60.0 4.499999999999999
    vertex 1.127986593019159e-14 28.877386360737614 15.272613639262374
    vertex 1.127986593019159e-14 29.377980021920973 15.924999999999999
  endloop
endfacet
facet normal -1.0 1.5479287501327563e-17 1.5811342111633434e-16
  outer loop
    vertex 0.0 60.0 4.499999999999999
    vertex 1.127986593019159e-14 29.377980021920973 15.924999999999999
    vertex 1.127986593019159e-14 29.692666352810562 16.68472000792706
  endloop
endfacet
facet normal -1.0 1.5479287501327563e-17 1.5811342111633434e-16
  outer loop
    vertex 0.0 60.0 4.499999999999999
    vertex 1.127986593019159e-14 29.692666352810562 16.68472000792706
    vertex 1.127986593019159e-14 29.79999999999999 17.5
  endloop
endfacet
facet normal -1.0 1.5479287501327563e-17 1.5811342111633434e-16
  outer loop
    vertex 0.0 60.0 4.499999999999999
    vertex 1.127986593019159e-14 29.79999999999999 17.5
    vertex 0.0 60.0 28.999999999999996
  endloop
endfacet
endsolid Base-Inner-Corner
