solid DN-R35HS1-BoltBlock
facet normal 2.1518675632831224e-16 -0.6087614290087243 0.7933533402912325
  outer loop
    vertex 26.500000000000032 12.949999999999994 9.671539030917335
    vertex 0.5000000000000175 13.447056274847709 10.052943725152286
    vertex 0.5000000000000175 12.949999999999994 9.67153903091734
  endloop
endfacet
facet normal 2.1518675632831224e-16 -0.6087614290087243 0.7933533402912325
  outer loop
    vertex 0.5000000000000175 13.447056274847709 10.052943725152286
    vertex 26.500000000000032 12.949999999999994 9.671539030917335
    vertex 26.500000000000018 13.447056274847709 10.052943725152277
  endloop
endfacet
facet normal 1.6528824521591992e-16 -0.7933533402912372 0.6087614290087183
  outer loop
    vertex 26.500000000000018 13.828460969082645 10.549999999999992
    vertex 0.5000000000000175 13.447056274847709 10.052943725152286
    vertex 26.500000000000018 13.447056274847709 10.052943725152277
  endloop
endfacet
facet normal 1.6528824521591992e-16 -0.7933533402912372 0.6087614290087183
  outer loop
    vertex 0.5000000000000175 13.447056274847709 10.052943725152286
    vertex 26.500000000000018 13.828460969082645 10.549999999999992
    vertex 0.5000000000000175 13.828460969082645 10.549999999999997
  endloop
endfacet
facet normal 1.3526596434737502e-16 -0.923879532511286 0.3826834323650917
  outer loop
    vertex 26.500000000000018 14.068221983093757 11.128834291753936
    vertex 0.5000000000000175 13.828460969082645 10.549999999999997
    vertex 26.500000000000018 13.828460969082645 10.549999999999992
  endloop
endfacet
facet normal 1.3526596434737502e-16 -0.923879532511286 0.3826834323650917
  outer loop
    vertex 0.5000000000000175 13.828460969082645 10.549999999999997
    vertex 26.500000000000018 14.068221983093757 11.128834291753936
    vertex 0.5000000000000175 14.068221983093757 11.128834291753948
  endloop
endfacet
facet normal 3.8897453200660245e-17 -0.9914448613738103 0.1305261922200532
  outer loop
    vertex 26.500000000000018 14.149999999999993 11.749999999999993
    vertex 0.5000000000000175 14.068221983093757 11.128834291753948
    vertex 26.500000000000018 14.068221983093757 11.128834291753936
  endloop
endfacet
facet normal 3.8897453200660245e-17 -0.9914448613738103 0.1305261922200532
  outer loop
    vertex 0.5000000000000175 14.068221983093757 11.128834291753948
    vertex 26.500000000000018 14.149999999999993 11.749999999999993
    vertex 0.5000000000000175 14.149999999999993 11.749999999999995
  endloop
endfacet
facet normal -2.8378532147852896e-17 -0.9914448613738103 -0.13052619222005335
  outer loop
    vertex 26.500000000000032 14.068221983093757 12.371165708246041
    vertex 0.5000000000000175 14.149999999999993 11.749999999999995
    vertex 26.500000000000018 14.149999999999993 11.749999999999993
  endloop
endfacet
facet normal -2.8378532147852896e-17 -0.9914448613738103 -0.13052619222005335
  outer loop
    vertex 0.5000000000000175 14.149999999999993 11.749999999999995
    vertex 26.500000000000032 14.068221983093757 12.371165708246041
    vertex 0.5000000000000175 14.068221983093757 12.37116570824605
  endloop
endfacet
facet normal -1.2410172598978392e-16 -0.9238795325112865 -0.38268343236509056
  outer loop
    vertex 26.500000000000018 13.828460969082645 12.94999999999999
    vertex 0.5000000000000175 14.068221983093757 12.37116570824605
    vertex 26.500000000000032 14.068221983093757 12.371165708246041
  endloop
endfacet
facet normal -1.2410172598978392e-16 -0.9238795325112865 -0.38268343236509056
  outer loop
    vertex 0.5000000000000175 14.068221983093757 12.37116570824605
    vertex 26.500000000000018 13.828460969082645 12.94999999999999
    vertex 0.5000000000000175 13.828460969082645 12.95
  endloop
endfacet
facet normal -1.9815082464563564e-16 -0.7933533402912342 -0.6087614290087222
  outer loop
    vertex 26.500000000000032 13.447056274847705 13.447056274847704
    vertex 0.5000000000000175 13.828460969082645 12.95
    vertex 26.500000000000018 13.828460969082645 12.94999999999999
  endloop
endfacet
facet normal -1.9815082464563564e-16 -0.7933533402912342 -0.6087614290087222
  outer loop
    vertex 0.5000000000000175 13.828460969082645 12.95
    vertex 26.500000000000032 13.447056274847705 13.447056274847704
    vertex 0.5000000000000175 13.447056274847705 13.44705627484771
  endloop
endfacet
facet normal -3.0121854408657535e-16 -0.6087614290087208 -0.7933533402912352
  outer loop
    vertex 26.500000000000032 13.447056274847705 13.447056274847704
    vertex 0.5000000000000175 12.949999999999994 13.82846096908265
    vertex 0.5000000000000175 13.447056274847705 13.44705627484771
  endloop
endfacet
facet normal -3.0121854408657535e-16 -0.6087614290087208 -0.7933533402912352
  outer loop
    vertex 0.5000000000000175 12.949999999999994 13.82846096908265
    vertex 26.500000000000032 13.447056274847705 13.447056274847704
    vertex 26.500000000000018 12.949999999999994 13.82846096908264
  endloop
endfacet
facet normal -3.0061276757097274e-16 -0.3826834323650898 -0.923879532511287
  outer loop
    vertex 26.500000000000018 12.949999999999994 13.82846096908264
    vertex 0.5000000000000175 12.371165708246043 14.068221983093759
    vertex 0.5000000000000175 12.949999999999994 13.82846096908265
  endloop
endfacet
facet normal -3.0061276757097274e-16 -0.3826834323650898 -0.923879532511287
  outer loop
    vertex 0.5000000000000175 12.371165708246043 14.068221983093759
    vertex 26.500000000000018 12.949999999999994 13.82846096908264
    vertex 26.500000000000032 12.371165708246043 14.068221983093753
  endloop
endfacet
facet normal -3.225389100514278e-16 -0.13052619222004921 -0.9914448613738107
  outer loop
    vertex 26.500000000000032 12.371165708246043 14.068221983093753
    vertex 0.5000000000000175 11.749999999999993 14.149999999999997
    vertex 0.5000000000000175 12.371165708246043 14.068221983093759
  endloop
endfacet
facet normal -3.225389100514278e-16 -0.13052619222004921 -0.9914448613738107
  outer loop
    vertex 0.5000000000000175 11.749999999999993 14.149999999999997
    vertex 26.500000000000032 12.371165708246043 14.068221983093753
    vertex 26.500000000000032 11.749999999999993 14.149999999999986
  endloop
endfacet
facet normal -3.2264695853254076e-16 0.1305261922200489 -0.9914448613738109
  outer loop
    vertex 26.500000000000032 11.749999999999993 14.149999999999986
    vertex 0.5000000000000175 11.128834291753941 14.068221983093759
    vertex 0.5000000000000175 11.749999999999993 14.149999999999997
  endloop
endfacet
facet normal -3.2264695853254076e-16 0.1305261922200489 -0.9914448613738109
  outer loop
    vertex 0.5000000000000175 11.128834291753941 14.068221983093759
    vertex 26.500000000000032 11.749999999999993 14.149999999999986
    vertex 26.500000000000032 11.128834291753941 14.068221983093753
  endloop
endfacet
facet normal -3.0092954968888216e-16 0.38268343236509056 -0.9238795325112865
  outer loop
    vertex 26.500000000000032 11.128834291753941 14.068221983093753
    vertex 0.5000000000000175 10.549999999999992 13.82846096908265
    vertex 0.5000000000000175 11.128834291753941 14.068221983093759
  endloop
endfacet
facet normal -3.0092954968888216e-16 0.38268343236509056 -0.9238795325112865
  outer loop
    vertex 0.5000000000000175 10.549999999999992 13.82846096908265
    vertex 26.500000000000032 11.128834291753941 14.068221983093753
    vertex 26.500000000000018 10.549999999999992 13.82846096908264
  endloop
endfacet
facet normal -3.0121854408657535e-16 0.6087614290087208 -0.7933533402912352
  outer loop
    vertex 26.500000000000018 10.549999999999992 13.82846096908264
    vertex 0.5000000000000175 10.052943725152279 13.44705627484771
    vertex 0.5000000000000175 10.549999999999992 13.82846096908265
  endloop
endfacet
facet normal -3.0121854408657535e-16 0.6087614290087208 -0.7933533402912352
  outer loop
    vertex 0.5000000000000175 10.052943725152279 13.44705627484771
    vertex 26.500000000000018 10.549999999999992 13.82846096908264
    vertex 26.500000000000032 10.052943725152279 13.447056274847704
  endloop
endfacet
facet normal -1.653955321485778e-16 0.7933533402912349 -0.6087614290087212
  outer loop
    vertex 0.5000000000000175 9.67153903091734 12.949999999999996
    vertex 26.500000000000032 10.052943725152279 13.447056274847704
    vertex 26.500000000000018 9.67153903091734 12.94999999999999
  endloop
endfacet
facet normal -1.653955321485778e-16 0.7933533402912349 -0.6087614290087212
  outer loop
    vertex 26.500000000000032 10.052943725152279 13.447056274847704
    vertex 0.5000000000000175 9.67153903091734 12.949999999999996
    vertex 0.5000000000000175 10.052943725152279 13.44705627484771
  endloop
endfacet
facet normal -8.298565838632112e-17 0.9238795325112865 -0.38268343236509056
  outer loop
    vertex 0.5000000000000175 9.431778016906229 12.371165708246046
    vertex 26.500000000000018 9.67153903091734 12.94999999999999
    vertex 26.500000000000032 9.431778016906229 12.371165708246041
  endloop
endfacet
facet normal -8.298565838632112e-17 0.9238795325112865 -0.38268343236509056
  outer loop
    vertex 26.500000000000018 9.67153903091734 12.94999999999999
    vertex 0.5000000000000175 9.431778016906229 12.371165708246046
    vertex 0.5000000000000175 9.67153903091734 12.949999999999996
  endloop
endfacet
facet normal -2.1355380875511162e-17 0.9914448613738105 -0.13052619222005143
  outer loop
    vertex 0.5000000000000175 9.349999999999993 11.749999999999995
    vertex 26.500000000000032 9.431778016906229 12.371165708246041
    vertex 26.500000000000018 9.349999999999993 11.749999999999993
  endloop
endfacet
facet normal -2.1355380875511162e-17 0.9914448613738105 -0.13052619222005143
  outer loop
    vertex 26.500000000000032 9.431778016906229 12.371165708246041
    vertex 0.5000000000000175 9.349999999999993 11.749999999999995
    vertex 0.5000000000000175 9.431778016906229 12.371165708246046
  endloop
endfacet
facet normal 3.900550168177235e-17 0.9914448613738107 0.13052619222005044
  outer loop
    vertex 0.5000000000000175 9.431778016906229 11.128834291753947
    vertex 26.500000000000018 9.349999999999993 11.749999999999993
    vertex 26.500000000000018 9.431778016906229 11.128834291753934
  endloop
endfacet
facet normal 3.900550168177235e-17 0.9914448613738107 0.13052619222005044
  outer loop
    vertex 26.500000000000018 9.349999999999993 11.749999999999993
    vertex 0.5000000000000175 9.431778016906229 11.128834291753947
    vertex 0.5000000000000175 9.349999999999993 11.749999999999995
  endloop
endfacet
facet normal 1.3526596434737502e-16 0.923879532511286 0.3826834323650917
  outer loop
    vertex 0.5000000000000175 9.67153903091734 10.549999999999995
    vertex 26.500000000000018 9.431778016906229 11.128834291753934
    vertex 26.500000000000018 9.67153903091734 10.549999999999988
  endloop
endfacet
facet normal 1.3526596434737502e-16 0.923879532511286 0.3826834323650917
  outer loop
    vertex 26.500000000000018 9.431778016906229 11.128834291753934
    vertex 0.5000000000000175 9.67153903091734 10.549999999999995
    vertex 0.5000000000000175 9.431778016906229 11.128834291753947
  endloop
endfacet
facet normal 1.647843176390435e-16 0.7933533402912332 0.6087614290087232
  outer loop
    vertex 0.5000000000000175 10.052943725152279 10.052943725152286
    vertex 26.500000000000018 9.67153903091734 10.549999999999988
    vertex 26.500000000000018 10.052943725152279 10.052943725152277
  endloop
endfacet
facet normal 1.647843176390435e-16 0.7933533402912332 0.6087614290087232
  outer loop
    vertex 26.500000000000018 9.67153903091734 10.549999999999988
    vertex 0.5000000000000175 10.052943725152279 10.052943725152286
    vertex 0.5000000000000175 9.67153903091734 10.549999999999995
  endloop
endfacet
facet normal 1.7217086244918098e-16 0.6087614290087257 0.7933533402912314
  outer loop
    vertex 26.500000000000018 10.052943725152279 10.052943725152277
    vertex 0.5000000000000175 10.549999999999995 9.671539030917337
    vertex 0.5000000000000175 10.052943725152279 10.052943725152286
  endloop
endfacet
facet normal 1.7217086244918098e-16 0.6087614290087257 0.7933533402912314
  outer loop
    vertex 0.5000000000000175 10.549999999999995 9.671539030917337
    vertex 26.500000000000018 10.052943725152279 10.052943725152277
    vertex 26.500000000000032 10.549999999999995 9.671539030917335
  endloop
endfacet
facet normal 1.5066159801877446e-16 0.38268343236508573 0.9238795325112886
  outer loop
    vertex 26.500000000000032 10.549999999999995 9.671539030917335
    vertex 0.5000000000000175 11.128834291753943 9.43177801690623
    vertex 0.5000000000000175 10.549999999999995 9.671539030917337
  endloop
endfacet
facet normal 1.5066159801877446e-16 0.38268343236508573 0.9238795325112886
  outer loop
    vertex 0.5000000000000175 11.128834291753943 9.43177801690623
    vertex 26.500000000000032 10.549999999999995 9.671539030917335
    vertex 26.500000000000032 11.128834291753943 9.431778016906225
  endloop
endfacet
facet normal 2.687125949465951e-16 0.13052619222005588 0.9914448613738098
  outer loop
    vertex 26.500000000000032 11.128834291753943 9.431778016906225
    vertex 0.5000000000000175 11.749999999999993 9.349999999999994
    vertex 0.5000000000000175 11.128834291753943 9.43177801690623
  endloop
endfacet
facet normal 2.687125949465951e-16 0.13052619222005588 0.9914448613738098
  outer loop
    vertex 0.5000000000000175 11.749999999999993 9.349999999999994
    vertex 26.500000000000032 11.128834291753943 9.431778016906225
    vertex 26.500000000000018 11.749999999999993 9.349999999999985
  endloop
endfacet
facet normal 2.6882064342770815e-16 -0.1305261922200553 0.99144486137381
  outer loop
    vertex 26.500000000000018 11.749999999999993 9.349999999999985
    vertex 0.5000000000000175 12.371165708246044 9.43177801690623
    vertex 0.5000000000000175 11.749999999999993 9.349999999999994
  endloop
endfacet
facet normal 2.6882064342770815e-16 -0.1305261922200553 0.99144486137381
  outer loop
    vertex 0.5000000000000175 12.371165708246044 9.43177801690623
    vertex 26.500000000000018 11.749999999999993 9.349999999999985
    vertex 26.500000000000032 12.371165708246044 9.431778016906225
  endloop
endfacet
facet normal 2.0075466741080336e-16 -0.3826834323650876 0.9238795325112878
  outer loop
    vertex 26.500000000000032 12.371165708246044 9.431778016906225
    vertex 0.5000000000000175 12.949999999999994 9.67153903091734
    vertex 0.5000000000000175 12.371165708246044 9.43177801690623
  endloop
endfacet
facet normal 2.0075466741080336e-16 -0.3826834323650876 0.9238795325112878
  outer loop
    vertex 0.5000000000000175 12.949999999999994 9.67153903091734
    vertex 26.500000000000032 12.371165708246044 9.431778016906225
    vertex 26.500000000000032 12.949999999999994 9.671539030917335
  endloop
endfacet
facet normal 0.7071067811865566 4.261541131814729e-17 0.7071067811865386
  outer loop
    vertex 26.500000000000018 0.49999999999999906 22.99999999999999
    vertex 26.000000000000032 23.49999999999999 23.49999999999999
    vertex 26.000000000000032 -8.019279684745584e-15 23.49999999999999
  endloop
endfacet
facet normal 0.7071067811865566 4.261541131814729e-17 0.7071067811865386
  outer loop
    vertex 26.000000000000032 23.49999999999999 23.49999999999999
    vertex 26.500000000000018 0.49999999999999906 22.99999999999999
    vertex 26.500000000000018 22.999999999999993 22.999999999999986
  endloop
endfacet
facet normal 0.7071067811865515 0.7071067811865436 -1.771903944280896e-16
  outer loop
    vertex 26.00000000000002 23.49999999999999 -5.639932965095795e-15
    vertex 26.500000000000018 22.999999999999993 22.999999999999986
    vertex 26.500000000000018 22.999999999999993 0.49999999999999345
  endloop
endfacet
facet normal 0.7071067811865515 0.7071067811865436 -1.771903944280896e-16
  outer loop
    vertex 26.500000000000018 22.999999999999993 22.999999999999986
    vertex 26.00000000000002 23.49999999999999 -5.639932965095795e-15
    vertex 26.000000000000032 23.49999999999999 23.49999999999999
  endloop
endfacet
facet normal 0.7071067811865476 0.0 -0.7071067811865476
  outer loop
    vertex 26.00000000000002 23.49999999999999 -5.639932965095795e-15
    vertex 26.500000000000018 0.49999999999999906 0.49999999999999345
    vertex 26.00000000000002 0.0 -5.639932965095795e-15
  endloop
endfacet
facet normal 0.7071067811865476 0.0 -0.7071067811865476
  outer loop
    vertex 26.500000000000018 0.49999999999999906 0.49999999999999345
    vertex 26.00000000000002 23.49999999999999 -5.639932965095795e-15
    vertex 26.500000000000018 22.999999999999993 0.49999999999999345
  endloop
endfacet
facet normal 0.7071067811865543 -0.7071067811865407 -3.0279371199736713e-16
  outer loop
    vertex 26.00000000000002 0.0 -5.639932965095795e-15
    vertex 26.500000000000018 0.49999999999999906 22.99999999999999
    vertex 26.000000000000032 -8.019279684745584e-15 23.49999999999999
  endloop
endfacet
facet normal 0.7071067811865543 -0.7071067811865407 -3.0279371199736713e-16
  outer loop
    vertex 26.500000000000018 0.49999999999999906 22.99999999999999
    vertex 26.00000000000002 0.0 -5.639932965095795e-15
    vertex 26.500000000000018 0.49999999999999906 0.49999999999999345
  endloop
endfacet
facet normal 1.0 -0.0 -0.0
  outer loop
    vertex 26.500000000000018 0.49999999999999906 0.49999999999999345
    vertex 26.500000000000018 9.67153903091734 10.549999999999988
    vertex 26.500000000000018 0.49999999999999906 22.99999999999999
  endloop
endfacet
facet normal 1.0 -0.0 -0.0
  outer loop
    vertex 26.500000000000018 9.67153903091734 10.549999999999988
    vertex 26.500000000000018 0.49999999999999906 0.49999999999999345
    vertex 26.500000000000018 10.052943725152279 10.052943725152277
  endloop
endfacet
facet normal 1.0 -0.0 -0.0
  outer loop
    vertex 26.500000000000018 10.052943725152279 10.052943725152277
    vertex 26.500000000000018 0.49999999999999906 0.49999999999999345
    vertex 26.500000000000032 10.549999999999995 9.671539030917335
  endloop
endfacet
facet normal 1.0 -0.0 -0.0
  outer loop
    vertex 26.500000000000032 10.549999999999995 9.671539030917335
    vertex 26.500000000000018 0.49999999999999906 0.49999999999999345
    vertex 26.500000000000018 22.999999999999993 0.49999999999999345
  endloop
endfacet
facet normal 1.0 -0.0 -0.0
  outer loop
    vertex 26.500000000000018 0.49999999999999906 22.99999999999999
    vertex 26.500000000000018 9.67153903091734 10.549999999999988
    vertex 26.500000000000018 9.431778016906229 11.128834291753934
  endloop
endfacet
facet normal 1.0 -0.0 -0.0
  outer loop
    vertex 26.500000000000018 0.49999999999999906 22.99999999999999
    vertex 26.500000000000018 9.431778016906229 11.128834291753934
    vertex 26.500000000000018 9.349999999999993 11.749999999999993
  endloop
endfacet
facet normal 1.0 -0.0 -0.0
  outer loop
    vertex 26.500000000000032 10.549999999999995 9.671539030917335
    vertex 26.500000000000018 22.999999999999993 0.49999999999999345
    vertex 26.500000000000032 11.128834291753943 9.431778016906225
  endloop
endfacet
facet normal 1.0 -0.0 -0.0
  outer loop
    vertex 26.500000000000032 11.128834291753943 9.431778016906225
    vertex 26.500000000000018 22.999999999999993 0.49999999999999345
    vertex 26.500000000000018 11.749999999999993 9.349999999999985
  endloop
endfacet
facet normal 1.0 -0.0 -0.0
  outer loop
    vertex 26.500000000000018 11.749999999999993 9.349999999999985
    vertex 26.500000000000018 22.999999999999993 0.49999999999999345
    vertex 26.500000000000032 12.371165708246044 9.431778016906225
  endloop
endfacet
facet normal 1.0 -0.0 -0.0
  outer loop
    vertex 26.500000000000032 12.371165708246044 9.431778016906225
    vertex 26.500000000000018 22.999999999999993 0.49999999999999345
    vertex 26.500000000000032 12.949999999999994 9.671539030917335
  endloop
endfacet
facet normal 1.0 -0.0 -0.0
  outer loop
    vertex 26.500000000000032 12.949999999999994 9.671539030917335
    vertex 26.500000000000018 22.999999999999993 0.49999999999999345
    vertex 26.500000000000018 13.447056274847709 10.052943725152277
  endloop
endfacet
facet normal 1.0 -0.0 -0.0
  outer loop
    vertex 26.500000000000018 13.447056274847709 10.052943725152277
    vertex 26.500000000000018 22.999999999999993 0.49999999999999345
    vertex 26.500000000000018 13.828460969082645 10.549999999999992
  endloop
endfacet
facet normal 1.0 -0.0 -0.0
  outer loop
    vertex 26.500000000000018 13.828460969082645 10.549999999999992
    vertex 26.500000000000018 22.999999999999993 0.49999999999999345
    vertex 26.500000000000018 14.068221983093757 11.128834291753936
  endloop
endfacet
facet normal 1.0 -0.0 -0.0
  outer loop
    vertex 26.500000000000018 14.068221983093757 11.128834291753936
    vertex 26.500000000000018 22.999999999999993 0.49999999999999345
    vertex 26.500000000000018 14.149999999999993 11.749999999999993
  endloop
endfacet
facet normal 1.0 -0.0 -0.0
  outer loop
    vertex 26.500000000000018 0.49999999999999906 22.99999999999999
    vertex 26.500000000000018 10.549999999999992 13.82846096908264
    vertex 26.500000000000018 22.999999999999993 22.999999999999986
  endloop
endfacet
facet normal 1.0 -0.0 -0.0
  outer loop
    vertex 26.500000000000018 10.549999999999992 13.82846096908264
    vertex 26.500000000000018 0.49999999999999906 22.99999999999999
    vertex 26.500000000000032 10.052943725152279 13.447056274847704
  endloop
endfacet
facet normal 1.0 -0.0 -0.0
  outer loop
    vertex 26.500000000000032 10.052943725152279 13.447056274847704
    vertex 26.500000000000018 0.49999999999999906 22.99999999999999
    vertex 26.500000000000018 9.67153903091734 12.94999999999999
  endloop
endfacet
facet normal 1.0 -0.0 -0.0
  outer loop
    vertex 26.500000000000018 9.67153903091734 12.94999999999999
    vertex 26.500000000000018 0.49999999999999906 22.99999999999999
    vertex 26.500000000000032 9.431778016906229 12.371165708246041
  endloop
endfacet
facet normal 1.0 -0.0 -0.0
  outer loop
    vertex 26.500000000000032 9.431778016906229 12.371165708246041
    vertex 26.500000000000018 0.49999999999999906 22.99999999999999
    vertex 26.500000000000018 9.349999999999993 11.749999999999993
  endloop
endfacet
facet normal 1.0 -0.0 -0.0
  outer loop
    vertex 26.500000000000018 22.999999999999993 22.999999999999986
    vertex 26.500000000000018 10.549999999999992 13.82846096908264
    vertex 26.500000000000032 11.128834291753941 14.068221983093753
  endloop
endfacet
facet normal 1.0 -0.0 -0.0
  outer loop
    vertex 26.500000000000018 22.999999999999993 22.999999999999986
    vertex 26.500000000000032 11.128834291753941 14.068221983093753
    vertex 26.500000000000032 11.749999999999993 14.149999999999986
  endloop
endfacet
facet normal 1.0 -0.0 -0.0
  outer loop
    vertex 26.500000000000018 22.999999999999993 22.999999999999986
    vertex 26.500000000000032 11.749999999999993 14.149999999999986
    vertex 26.500000000000032 12.371165708246043 14.068221983093753
  endloop
endfacet
facet normal 1.0 -0.0 -0.0
  outer loop
    vertex 26.500000000000018 22.999999999999993 22.999999999999986
    vertex 26.500000000000032 12.371165708246043 14.068221983093753
    vertex 26.500000000000018 12.949999999999994 13.82846096908264
  endloop
endfacet
facet normal 1.0 -0.0 -0.0
  outer loop
    vertex 26.500000000000018 22.999999999999993 22.999999999999986
    vertex 26.500000000000018 12.949999999999994 13.82846096908264
    vertex 26.500000000000032 13.447056274847705 13.447056274847704
  endloop
endfacet
facet normal 1.0 -0.0 -0.0
  outer loop
    vertex 26.500000000000018 22.999999999999993 22.999999999999986
    vertex 26.500000000000032 13.447056274847705 13.447056274847704
    vertex 26.500000000000018 13.828460969082645 12.94999999999999
  endloop
endfacet
facet normal 1.0 -0.0 -0.0
  outer loop
    vertex 26.500000000000018 22.999999999999993 22.999999999999986
    vertex 26.500000000000018 13.828460969082645 12.94999999999999
    vertex 26.500000000000032 14.068221983093757 12.371165708246041
  endloop
endfacet
facet normal 1.0 -0.0 -0.0
  outer loop
    vertex 26.500000000000018 22.999999999999993 22.999999999999986
    vertex 26.500000000000032 14.068221983093757 12.371165708246041
    vertex 26.500000000000018 14.149999999999993 11.749999999999993
  endloop
endfacet
facet normal 1.0 -0.0 -0.0
  outer loop
    vertex 26.500000000000018 22.999999999999993 22.999999999999986
    vertex 26.500000000000018 14.149999999999993 11.749999999999993
    vertex 26.500000000000018 22.999999999999993 0.49999999999999345
  endloop
endfacet
facet normal -0.7071067811865476 -0.0 0.7071067811865476
  outer loop
    vertex 1.0000000000000053 23.49999999999999 23.499999999999996
    vertex 0.5000000000000063 0.49999999999999906 22.999999999999996
    vertex 1.0000000000000053 -8.029431229496863e-15 23.499999999999996
  endloop
endfacet
facet normal -0.7071067811865476 -0.0 0.7071067811865476
  outer loop
    vertex 0.5000000000000063 0.49999999999999906 22.999999999999996
    vertex 1.0000000000000053 23.49999999999999 23.499999999999996
    vertex 0.5000000000000063 22.999999999999993 22.999999999999996
  endloop
endfacet
facet normal -0.7071067811865477 0.7071067811865475 1.7270456165775722e-16
  outer loop
    vertex 1.0000000000000053 23.49999999999999 23.499999999999996
    vertex 0.5000000000000007 22.999999999999993 0.5000000000000048
    vertex 0.5000000000000063 22.999999999999993 22.999999999999996
  endloop
endfacet
facet normal -0.7071067811865477 0.7071067811865475 1.7270456165775722e-16
  outer loop
    vertex 0.5000000000000007 22.999999999999993 0.5000000000000048
    vertex 1.0000000000000053 23.49999999999999 23.499999999999996
    vertex 0.9999999999999998 23.49999999999999 0.0
  endloop
endfacet
facet normal -0.7071067811865515 0.0 -0.7071067811865436
  outer loop
    vertex 0.5000000000000007 0.49999999999999906 0.5000000000000048
    vertex 0.9999999999999998 23.49999999999999 0.0
    vertex 0.9999999999999998 -1.0151544751278817e-17 0.0
  endloop
endfacet
facet normal -0.7071067811865515 0.0 -0.7071067811865436
  outer loop
    vertex 0.9999999999999998 23.49999999999999 0.0
    vertex 0.5000000000000007 0.49999999999999906 0.5000000000000048
    vertex 0.5000000000000007 22.999999999999993 0.5000000000000048
  endloop
endfacet
facet normal -0.7071067811865503 -0.7071067811865447 4.710124408848045e-17
  outer loop
    vertex 0.5000000000000063 0.49999999999999906 22.999999999999996
    vertex 0.9999999999999998 -1.0151544751278817e-17 0.0
    vertex 1.0000000000000053 -8.029431229496863e-15 23.499999999999996
  endloop
endfacet
facet normal -0.7071067811865503 -0.7071067811865447 4.710124408848045e-17
  outer loop
    vertex 0.9999999999999998 -1.0151544751278817e-17 0.0
    vertex 0.5000000000000063 0.49999999999999906 22.999999999999996
    vertex 0.5000000000000007 0.49999999999999906 0.5000000000000048
  endloop
endfacet
facet normal -2.2559731860383166e-16 0.0 -1.0
  outer loop
    vertex 26.00000000000002 23.49999999999999 -5.639932965095795e-15
    vertex 0.9999999999999998 -1.0151544751278817e-17 0.0
    vertex 0.9999999999999998 23.49999999999999 0.0
  endloop
endfacet
facet normal -2.2559731860383166e-16 0.0 -1.0
  outer loop
    vertex 0.9999999999999998 -1.0151544751278817e-17 0.0
    vertex 26.00000000000002 23.49999999999999 -5.639932965095795e-15
    vertex 26.00000000000002 0.0 -5.639932965095795e-15
  endloop
endfacet
facet normal -1.0 0.0 2.50663687337591e-16
  outer loop
    vertex 0.5000000000000063 0.49999999999999906 22.999999999999996
    vertex 0.5000000000000175 9.67153903091734 12.949999999999996
    vertex 0.5000000000000007 0.49999999999999906 0.5000000000000048
  endloop
endfacet
facet normal -1.0 0.0 2.50663687337591e-16
  outer loop
    vertex 0.5000000000000175 9.67153903091734 12.949999999999996
    vertex 0.5000000000000063 0.49999999999999906 22.999999999999996
    vertex 0.5000000000000175 10.052943725152279 13.44705627484771
  endloop
endfacet
facet normal -1.0 0.0 2.50663687337591e-16
  outer loop
    vertex 0.5000000000000175 10.052943725152279 13.44705627484771
    vertex 0.5000000000000063 0.49999999999999906 22.999999999999996
    vertex 0.5000000000000175 10.549999999999992 13.82846096908265
  endloop
endfacet
facet normal -1.0 0.0 2.50663687337591e-16
  outer loop
    vertex 0.5000000000000175 10.549999999999992 13.82846096908265
    vertex 0.5000000000000063 0.49999999999999906 22.999999999999996
    vertex 0.5000000000000063 22.999999999999993 22.999999999999996
  endloop
endfacet
facet normal -1.0 0.0 2.50663687337591e-16
  outer loop
    vertex 0.5000000000000007 0.49999999999999906 0.5000000000000048
    vertex 0.5000000000000175 9.67153903091734 12.949999999999996
    vertex 0.5000000000000175 9.431778016906229 12.371165708246046
  endloop
endfacet
facet normal -1.0 0.0 2.50663687337591e-16
  outer loop
    vertex 0.5000000000000007 0.49999999999999906 0.5000000000000048
    vertex 0.5000000000000175 9.431778016906229 12.371165708246046
    vertex 0.5000000000000175 9.349999999999993 11.749999999999995
  endloop
endfacet
facet normal -1.0 0.0 2.50663687337591e-16
  outer loop
    vertex 0.5000000000000175 10.549999999999992 13.82846096908265
    vertex 0.5000000000000063 22.999999999999993 22.999999999999996
    vertex 0.5000000000000175 11.128834291753941 14.068221983093759
  endloop
endfacet
facet normal -1.0 0.0 2.50663687337591e-16
  outer loop
    vertex 0.5000000000000175 11.128834291753941 14.068221983093759
    vertex 0.5000000000000063 22.999999999999993 22.999999999999996
    vertex 0.5000000000000175 11.749999999999993 14.149999999999997
  endloop
endfacet
facet normal -1.0 0.0 2.50663687337591e-16
  outer loop
    vertex 0.5000000000000175 11.749999999999993 14.149999999999997
    vertex 0.5000000000000063 22.999999999999993 22.999999999999996
    vertex 0.5000000000000175 12.371165708246043 14.068221983093759
  endloop
endfacet
facet normal -1.0 0.0 2.50663687337591e-16
  outer loop
    vertex 0.5000000000000175 12.371165708246043 14.068221983093759
    vertex 0.5000000000000063 22.999999999999993 22.999999999999996
    vertex 0.5000000000000175 12.949999999999994 13.82846096908265
  endloop
endfacet
facet normal -1.0 0.0 2.50663687337591e-16
  outer loop
    vertex 0.5000000000000175 12.949999999999994 13.82846096908265
    vertex 0.5000000000000063 22.999999999999993 22.999999999999996
    vertex 0.5000000000000175 13.447056274847705 13.44705627484771
  endloop
endfacet
facet normal -1.0 0.0 2.50663687337591e-16
  outer loop
    vertex 0.5000000000000175 13.447056274847705 13.44705627484771
    vertex 0.5000000000000063 22.999999999999993 22.999999999999996
    vertex 0.5000000000000175 13.828460969082645 12.95
  endloop
endfacet
facet normal -1.0 0.0 2.50663687337591e-16
  outer loop
    vertex 0.5000000000000175 13.828460969082645 12.95
    vertex 0.5000000000000063 22.999999999999993 22.999999999999996
    vertex 0.5000000000000175 14.068221983093757 12.37116570824605
  endloop
endfacet
facet normal -1.0 0.0 2.50663687337591e-16
  outer loop
    vertex 0.5000000000000175 14.068221983093757 12.37116570824605
    vertex 0.5000000000000063 22.999999999999993 22.999999999999996
    vertex 0.5000000000000175 14.149999999999993 11.749999999999995
  endloop
endfacet
facet normal -1.0 0.0 2.50663687337591e-16
  outer loop
    vertex 0.5000000000000007 0.49999999999999906 0.5000000000000048
    vertex 0.5000000000000175 10.549999999999995 9.671539030917337
    vertex 0.5000000000000007 22.999999999999993 0.5000000000000048
  endloop
endfacet
facet normal -1.0 0.0 2.50663687337591e-16
  outer loop
    vertex 0.5000000000000175 10.549999999999995 9.671539030917337
    vertex 0.5000000000000007 0.49999999999999906 0.5000000000000048
    vertex 0.5000000000000175 10.052943725152279 10.052943725152286
  endloop
endfacet
facet normal -1.0 0.0 2.50663687337591e-16
  outer loop
    vertex 0.5000000000000175 10.052943725152279 10.052943725152286
    vertex 0.5000000000000007 0.49999999999999906 0.5000000000000048
    vertex 0.5000000000000175 9.67153903091734 10.549999999999995
  endloop
endfacet
facet normal -1.0 0.0 2.50663687337591e-16
  outer loop
    vertex 0.5000000000000175 9.67153903091734 10.549999999999995
    vertex 0.5000000000000007 0.49999999999999906 0.5000000000000048
    vertex 0.5000000000000175 9.431778016906229 11.128834291753947
  endloop
endfacet
facet normal -1.0 0.0 2.50663687337591e-16
  outer loop
    vertex 0.5000000000000175 9.431778016906229 11.128834291753947
    vertex 0.5000000000000007 0.49999999999999906 0.5000000000000048
    vertex 0.5000000000000175 9.349999999999993 11.749999999999995
  endloop
endfacet
facet normal -1.0 0.0 2.50663687337591e-16
  outer loop
    vertex 0.5000000000000007 22.999999999999993 0.5000000000000048
    vertex 0.5000000000000175 10.549999999999995 9.671539030917337
    vertex 0.5000000000000175 11.128834291753943 9.43177801690623
  endloop
endfacet
facet normal -1.0 0.0 2.50663687337591e-16
  outer loop
    vertex 0.5000000000000007 22.999999999999993 0.5000000000000048
    vertex 0.5000000000000175 11.128834291753943 9.43177801690623
    vertex 0.5000000000000175 11.749999999999993 9.349999999999994
  endloop
endfacet
facet normal -1.0 0.0 2.50663687337591e-16
  outer loop
    vertex 0.5000000000000007 22.999999999999993 0.5000000000000048
    vertex 0.5000000000000175 11.749999999999993 9.349999999999994
    vertex 0.5000000000000175 12.371165708246044 9.43177801690623
  endloop
endfacet
facet normal -1.0 0.0 2.50663687337591e-16
  outer loop
    vertex 0.5000000000000007 22.999999999999993 0.5000000000000048
    vertex 0.5000000000000175 12.371165708246044 9.43177801690623
    vertex 0.5000000000000175 12.949999999999994 9.67153903091734
  endloop
endfacet
facet normal -1.0 0.0 2.50663687337591e-16
  outer loop
    vertex 0.5000000000000007 22.999999999999993 0.5000000000000048
    vertex 0.5000000000000175 12.949999999999994 9.67153903091734
    vertex 0.5000000000000175 13.447056274847709 10.052943725152286
  endloop
endfacet
facet normal -1.0 0.0 2.50663687337591e-16
  outer loop
    vertex 0.5000000000000007 22.999999999999993 0.5000000000000048
    vertex 0.5000000000000175 13.447056274847709 10.052943725152286
    vertex 0.5000000000000175 13.828460969082645 10.549999999999997
  endloop
endfacet
facet normal -1.0 0.0 2.50663687337591e-16
  outer loop
    vertex 0.5000000000000007 22.999999999999993 0.5000000000000048
    vertex 0.5000000000000175 13.828460969082645 10.549999999999997
    vertex 0.5000000000000175 14.068221983093757 11.128834291753948
  endloop
endfacet
facet normal -1.0 0.0 2.50663687337591e-16
  outer loop
    vertex 0.5000000000000007 22.999999999999993 0.5000000000000048
    vertex 0.5000000000000175 14.068221983093757 11.128834291753948
    vertex 0.5000000000000175 14.149999999999993 11.749999999999995
  endloop
endfacet
facet normal -1.0 0.0 2.50663687337591e-16
  outer loop
    vertex 0.5000000000000007 22.999999999999993 0.5000000000000048
    vertex 0.5000000000000175 14.149999999999993 11.749999999999995
    vertex 0.5000000000000063 22.999999999999993 22.999999999999996
  endloop
endfacet
facet normal -0.0 1.0 -0.0
  outer loop
    vertex 0.9999999999999998 23.49999999999999 0.0
    vertex 26.000000000000032 23.49999999999999 23.49999999999999
    vertex 26.00000000000002 23.49999999999999 -5.639932965095795e-15
  endloop
endfacet
facet normal -0.0 1.0 -0.0
  outer loop
    vertex 26.000000000000032 23.49999999999999 23.49999999999999
    vertex 0.9999999999999998 23.49999999999999 0.0
    vertex 1.0000000000000053 23.49999999999999 23.499999999999996
  endloop
endfacet
facet normal 4.0606179005105777e-19 -1.0 -3.41245944031727e-16
  outer loop
    vertex 26.000000000000032 -8.019279684745584e-15 23.49999999999999
    vertex 0.9999999999999998 -1.0151544751278817e-17 0.0
    vertex 26.00000000000002 0.0 -5.639932965095795e-15
  endloop
endfacet
facet normal 4.0606179005105777e-19 -1.0 -3.41245944031727e-16
  outer loop
    vertex 0.9999999999999998 -1.0151544751278817e-17 0.0
    vertex 26.000000000000032 -8.019279684745584e-15 23.49999999999999
    vertex 1.0000000000000053 -8.029431229496863e-15 23.499999999999996
  endloop
endfacet
facet normal 3.3839597790574737e-16 -2.4363931237967333e-48 1.0
  outer loop
    vertex 26.000000000000032 -8.019279684745584e-15 23.49999999999999
    vertex 1.0000000000000053 23.49999999999999 23.499999999999996
    vertex 1.0000000000000053 -8.029431229496863e-15 23.499999999999996
  endloop
endfacet
facet normal 3.3839597790574737e-16 -2.4363931237967333e-48 1.0
  outer loop
    vertex 1.0000000000000053 23.49999999999999 23.499999999999996
    vertex 26.000000000000032 -8.019279684745584e-15 23.49999999999999
    vertex 26.000000000000032 23.49999999999999 23.49999999999999
  endloop
endfacet
endsolid DN-R35HS1-BoltBlock
