solid DN-R35HS1-90InsideCorner
facet normal 0.0 -1.0 0.0
  outer loop
    vertex 0.0 0.0 0.0
    vertex -6.134720007927057 0.0 8.707333647189436
    vertex -28.799999999999997 0.0 0.0
  endloop
endfacet
facet normal 0.0 -1.0 0.0
  outer loop
    vertex -6.134720007927057 0.0 8.707333647189436
    vertex 0.0 0.0 0.0
    vertex -5.374999999999998 0.0 9.022019978079019
  endloop
endfacet
facet normal 0.0 -1.0 0.0
  outer loop
    vertex -5.374999999999998 0.0 9.022019978079019
    vertex 0.0 0.0 0.0
    vertex -4.722613639262374 0.0 9.522613639262376
  endloop
endfacet
facet normal 0.0 -1.0 0.0
  outer loop
    vertex -4.722613639262374 0.0 9.522613639262376
    vertex 0.0 0.0 0.0
    vertex -4.222019978079018 0.0 10.175
  endloop
endfacet
facet normal 0.0 -1.0 0.0
  outer loop
    vertex -4.222019978079018 0.0 10.175
    vertex 0.0 0.0 0.0
    vertex -3.907333647189435 0.0 10.93472000792706
  endloop
endfacet
facet normal 0.0 -1.0 0.0
  outer loop
    vertex -3.907333647189435 0.0 10.93472000792706
    vertex 0.0 0.0 0.0
    vertex 0.0 0.0 22.5
  endloop
endfacet
facet normal 0.0 -1.0 0.0
  outer loop
    vertex -28.799999999999997 0.0 0.0
    vertex -6.134720007927057 0.0 8.707333647189436
    vertex -6.95 0.0 8.6
  endloop
endfacet
facet normal 0.0 -1.0 0.0
  outer loop
    vertex -3.907333647189435 0.0 10.93472000792706
    vertex 0.0 0.0 22.5
    vertex -3.8000000000000003 0.0 11.75
  endloop
endfacet
facet normal 0.0 -1.0 0.0
  outer loop
    vertex -3.8000000000000003 0.0 11.75
    vertex 0.0 0.0 22.5
    vertex -3.907333647189435 0.0 12.565279992072941
  endloop
endfacet
facet normal 0.0 -1.0 0.0
  outer loop
    vertex -3.907333647189435 0.0 12.565279992072941
    vertex 0.0 0.0 22.5
    vertex -4.222019978079019 0.0 13.325000000000001
  endloop
endfacet
facet normal 0.0 -1.0 0.0
  outer loop
    vertex -4.222019978079019 0.0 13.325000000000001
    vertex 0.0 0.0 22.5
    vertex -4.722613639262375 0.0 13.977386360737624
  endloop
endfacet
facet normal 0.0 -1.0 0.0
  outer loop
    vertex -4.722613639262375 0.0 13.977386360737624
    vertex 0.0 0.0 22.5
    vertex -5.375000000000001 0.0 14.477980021920981
  endloop
endfacet
facet normal 0.0 -1.0 0.0
  outer loop
    vertex -5.375000000000001 0.0 14.477980021920981
    vertex 0.0 0.0 22.5
    vertex -6.13472000792706 0.0 14.792666352810565
  endloop
endfacet
facet normal 0.0 -1.0 0.0
  outer loop
    vertex -6.13472000792706 0.0 14.792666352810565
    vertex 0.0 0.0 22.5
    vertex -6.95 0.0 14.9
  endloop
endfacet
facet normal 0.0 -1.0 0.0
  outer loop
    vertex -28.799999999999997 0.0 0.0
    vertex -8.524999999999997 0.0 9.022019978079017
    vertex -28.799999999999997 0.0 23.5
  endloop
endfacet
facet normal 0.0 -1.0 0.0
  outer loop
    vertex -8.524999999999997 0.0 9.022019978079017
    vertex -28.799999999999997 0.0 0.0
    vertex -7.765279992072938 0.0 8.707333647189435
  endloop
endfacet
facet normal 0.0 -1.0 0.0
  outer loop
    vertex -7.765279992072938 0.0 8.707333647189435
    vertex -28.799999999999997 0.0 0.0
    vertex -6.95 0.0 8.6
  endloop
endfacet
facet normal 0.0 -1.0 0.0
  outer loop
    vertex -28.799999999999997 0.0 23.5
    vertex -8.524999999999997 0.0 9.022019978079017
    vertex -9.177386360737623 0.0 9.522613639262374
  endloop
endfacet
facet normal 0.0 -1.0 0.0
  outer loop
    vertex -28.799999999999997 0.0 23.5
    vertex -9.177386360737623 0.0 9.522613639262374
    vertex -9.67798002192098 0.0 10.174999999999999
  endloop
endfacet
facet normal 0.0 -1.0 0.0
  outer loop
    vertex -28.799999999999997 0.0 23.5
    vertex -9.67798002192098 0.0 10.174999999999999
    vertex -9.992666352810563 0.0 10.934720007927057
  endloop
endfacet
facet normal 0.0 -1.0 0.0
  outer loop
    vertex -28.799999999999997 0.0 23.5
    vertex -9.992666352810563 0.0 10.934720007927057
    vertex -10.1 0.0 11.75
  endloop
endfacet
facet normal 0.0 -1.0 0.0
  outer loop
    vertex -28.799999999999997 0.0 23.5
    vertex -10.1 0.0 11.75
    vertex -9.992666352810565 0.0 12.56527999207294
  endloop
endfacet
facet normal 0.0 -1.0 0.0
  outer loop
    vertex -28.799999999999997 0.0 23.5
    vertex -9.992666352810565 0.0 12.56527999207294
    vertex -9.677980021920982 0.0 13.324999999999998
  endloop
endfacet
facet normal 0.0 -1.0 0.0
  outer loop
    vertex -28.799999999999997 0.0 23.5
    vertex -9.677980021920982 0.0 13.324999999999998
    vertex -9.177386360737625 0.0 13.977386360737624
  endloop
endfacet
facet normal 0.0 -1.0 0.0
  outer loop
    vertex -28.799999999999997 0.0 23.5
    vertex -9.177386360737625 0.0 13.977386360737624
    vertex -8.525 0.0 14.477980021920981
  endloop
endfacet
facet normal 0.0 -1.0 0.0
  outer loop
    vertex -28.799999999999997 0.0 23.5
    vertex -8.525 0.0 14.477980021920981
    vertex -7.765279992072942 0.0 14.792666352810564
  endloop
endfacet
facet normal 0.0 -1.0 0.0
  outer loop
    vertex -28.799999999999997 0.0 23.5
    vertex -7.765279992072942 0.0 14.792666352810564
    vertex -6.95 0.0 14.9
  endloop
endfacet
facet normal 0.0 -1.0 0.0
  outer loop
    vertex -28.799999999999997 0.0 23.5
    vertex -6.95 0.0 14.9
    vertex -0.499999999999999 2.937465085987393e-16 22.5
  endloop
endfacet
facet normal 0.0 -1.0 0.0
  outer loop
    vertex -0.499999999999999 2.937465085987393e-16 22.5
    vertex -6.95 0.0 14.9
    vertex 0.0 0.0 22.5
  endloop
endfacet
facet normal 0.0 -1.0 0.0
  outer loop
    vertex -28.799999999999997 0.0 23.5
    vertex -0.499999999999999 2.937465085987393e-16 22.5
    vertex -0.499999999999999 2.937465085987393e-16 23.5
  endloop
endfacet
facet normal -1.0 0.0 0.0
  outer loop
    vertex -28.799999999999997 13.000000000000002 23.5
    vertex -28.799999999999997 0.0 0.0
    vertex -28.799999999999997 0.0 23.5
  endloop
endfacet
facet normal -1.0 0.0 0.0
  outer loop
    vertex -28.799999999999997 0.0 0.0
    vertex -28.799999999999997 13.000000000000002 23.5
    vertex -28.799999999999997 13.000000000000002 0.0
  endloop
endfacet
facet normal -1.0 0.0 0.0
  outer loop
    vertex -28.799999999999997 13.000000000000002 0.0
    vertex -28.799999999999997 13.000000000000002 23.5
    vertex -28.799999999999997 13.5 23.0
  endloop
endfacet
facet normal -1.0 0.0 0.0
  outer loop
    vertex -28.799999999999997 13.000000000000002 0.0
    vertex -28.799999999999997 13.5 23.0
    vertex -28.799999999999997 13.5 0.49999999999999994
  endloop
endfacet
facet normal -1.0 0.0 0.0
  outer loop
    vertex 0.0 0.0 23.5
    vertex 0.0 -27.3 0.0
    vertex 0.0 -27.3 23.5
  endloop
endfacet
facet normal -1.0 0.0 0.0
  outer loop
    vertex 0.0 -27.3 0.0
    vertex 0.0 0.0 23.5
    vertex 0.0 -7.677386360737624 13.977386360737624
  endloop
endfacet
facet normal -1.0 0.0 0.0
  outer loop
    vertex 0.0 -27.3 0.0
    vertex 0.0 -7.677386360737624 13.977386360737624
    vertex 0.0 -8.17798002192098 13.325000000000001
  endloop
endfacet
facet normal -1.0 0.0 0.0
  outer loop
    vertex 0.0 -27.3 0.0
    vertex 0.0 -8.17798002192098 13.325000000000001
    vertex 0.0 -8.492666352810563 12.565279992072943
  endloop
endfacet
facet normal -1.0 0.0 0.0
  outer loop
    vertex 0.0 -27.3 0.0
    vertex 0.0 -8.492666352810563 12.565279992072943
    vertex 0.0 -8.6 11.75
  endloop
endfacet
facet normal -1.0 0.0 0.0
  outer loop
    vertex 0.0 -7.677386360737624 13.977386360737624
    vertex 0.0 0.0 23.5
    vertex 0.0 -7.024999999999997 14.477980021920981
  endloop
endfacet
facet normal -1.0 0.0 0.0
  outer loop
    vertex 0.0 -7.024999999999997 14.477980021920981
    vertex 0.0 0.0 23.5
    vertex 0.0 -6.265279992072938 14.792666352810565
  endloop
endfacet
facet normal -1.0 0.0 0.0
  outer loop
    vertex 0.0 -6.265279992072938 14.792666352810565
    vertex 0.0 0.0 23.5
    vertex 0.0 -5.449999999999999 14.9
  endloop
endfacet
facet normal -1.0 0.0 0.0
  outer loop
    vertex 0.0 -5.449999999999999 14.9
    vertex 0.0 0.0 23.5
    vertex 0.0 -4.634720007927057 14.792666352810564
  endloop
endfacet
facet normal -1.0 0.0 0.0
  outer loop
    vertex 0.0 -4.634720007927057 14.792666352810564
    vertex 0.0 0.0 23.5
    vertex 0.0 -3.8749999999999987 14.477980021920981
  endloop
endfacet
facet normal -1.0 0.0 0.0
  outer loop
    vertex 0.0 -3.8749999999999987 14.477980021920981
    vertex 0.0 0.0 23.5
    vertex 0.0 -3.222613639262374 13.977386360737624
  endloop
endfacet
facet normal -1.0 0.0 0.0
  outer loop
    vertex 0.0 -3.222613639262374 13.977386360737624
    vertex 0.0 0.0 23.5
    vertex 0.0 -2.7220199780790177 13.324999999999998
  endloop
endfacet
facet normal -1.0 0.0 0.0
  outer loop
    vertex 0.0 -2.7220199780790177 13.324999999999998
    vertex 0.0 0.0 23.5
    vertex 0.0 -2.4073336471894344 12.565279992072938
  endloop
endfacet
facet normal -1.0 0.0 0.0
  outer loop
    vertex 0.0 -2.4073336471894344 12.565279992072938
    vertex 0.0 0.0 23.5
    vertex 0.0 -2.3 11.75
  endloop
endfacet
facet normal -1.0 0.0 0.0
  outer loop
    vertex 0.0 -27.3 0.0
    vertex 0.0 -7.677386360737625 9.522613639262374
    vertex 0.0 0.0 0.0
  endloop
endfacet
facet normal -1.0 0.0 0.0
  outer loop
    vertex 0.0 -7.677386360737625 9.522613639262374
    vertex 0.0 -27.3 0.0
    vertex 0.0 -8.177980021920982 10.174999999999999
  endloop
endfacet
facet normal -1.0 0.0 0.0
  outer loop
    vertex 0.0 -8.177980021920982 10.174999999999999
    vertex 0.0 -27.3 0.0
    vertex 0.0 -8.492666352810565 10.93472000792706
  endloop
endfacet
facet normal -1.0 0.0 0.0
  outer loop
    vertex 0.0 -8.492666352810565 10.93472000792706
    vertex 0.0 -27.3 0.0
    vertex 0.0 -8.6 11.75
  endloop
endfacet
facet normal -1.0 0.0 0.0
  outer loop
    vertex 0.0 0.0 0.0
    vertex 0.0 -7.677386360737625 9.522613639262374
    vertex 0.0 -7.0249999999999995 9.022019978079017
  endloop
endfacet
facet normal -1.0 0.0 0.0
  outer loop
    vertex 0.0 0.0 0.0
    vertex 0.0 -7.0249999999999995 9.022019978079017
    vertex 0.0 -6.265279992072942 8.707333647189435
  endloop
endfacet
facet normal -1.0 0.0 0.0
  outer loop
    vertex 0.0 0.0 0.0
    vertex 0.0 -6.265279992072942 8.707333647189435
    vertex 0.0 -5.45 8.6
  endloop
endfacet
facet normal -1.0 0.0 0.0
  outer loop
    vertex 0.0 0.0 0.0
    vertex 0.0 -5.45 8.6
    vertex 0.0 -4.63472000792706 8.707333647189435
  endloop
endfacet
facet normal -1.0 0.0 0.0
  outer loop
    vertex 0.0 0.0 0.0
    vertex 0.0 -4.63472000792706 8.707333647189435
    vertex 0.0 -3.8750000000000004 9.022019978079017
  endloop
endfacet
facet normal -1.0 0.0 0.0
  outer loop
    vertex 0.0 0.0 0.0
    vertex 0.0 -3.8750000000000004 9.022019978079017
    vertex 0.0 -3.2226136392623754 9.522613639262374
  endloop
endfacet
facet normal -1.0 0.0 0.0
  outer loop
    vertex 0.0 0.0 0.0
    vertex 0.0 -3.2226136392623754 9.522613639262374
    vertex 0.0 -2.722019978079019 10.174999999999999
  endloop
endfacet
facet normal -1.0 0.0 0.0
  outer loop
    vertex 0.0 0.0 0.0
    vertex 0.0 -2.722019978079019 10.174999999999999
    vertex 0.0 -2.4073336471894353 10.934720007927059
  endloop
endfacet
facet normal -1.0 0.0 0.0
  outer loop
    vertex 0.0 0.0 0.0
    vertex 0.0 -2.4073336471894353 10.934720007927059
    vertex 0.0 -2.3 11.75
  endloop
endfacet
facet normal -1.0 0.0 0.0
  outer loop
    vertex 0.0 0.0 0.0
    vertex 0.0 -2.3 11.75
    vertex 0.0 0.0 23.5
  endloop
endfacet
facet normal -1.0 0.0 0.0
  outer loop
    vertex 0.0 0.0 0.0
    vertex 0.0 0.0 23.5
    vertex 0.0 0.0 22.5
  endloop
endfacet
facet normal 0.0 0.0 1.0
  outer loop
    vertex -0.499999999999999 2.937465085987393e-16 22.5
    vertex 0.0 1.5 22.5
    vertex -0.4999999999999999 1.5000000000000004 22.5
  endloop
endfacet
facet normal 0.0 0.0 1.0
  outer loop
    vertex 0.0 1.5 22.5
    vertex -0.499999999999999 2.937465085987393e-16 22.5
    vertex 0.0 0.0 22.5
  endloop
endfacet
facet normal -1.0 0.0 -0.0
  outer loop
    vertex 0.0 1.5 23.5
    vertex 0.0 0.0 22.5
    vertex 0.0 0.0 23.5
  endloop
endfacet
facet normal -1.0 0.0 -0.0
  outer loop
    vertex 0.0 0.0 22.5
    vertex 0.0 1.5 23.5
    vertex 0.0 1.5 22.5
  endloop
endfacet
facet normal -0.0 -1.0 -0.0
  outer loop
    vertex 0.0 1.5 23.5
    vertex -0.4999999999999999 1.5000000000000004 22.5
    vertex 0.0 1.5 22.5
  endloop
endfacet
facet normal -0.0 -1.0 -0.0
  outer loop
    vertex -0.4999999999999999 1.5000000000000004 22.5
    vertex 0.0 1.5 23.5
    vertex -0.4999999999999999 1.5000000000000004 23.5
  endloop
endfacet
facet normal 1.0 5.874930171974787e-16 0.0
  outer loop
    vertex -0.4999999999999999 1.5000000000000004 22.5
    vertex -0.499999999999999 2.937465085987393e-16 23.5
    vertex -0.499999999999999 2.937465085987393e-16 22.5
  endloop
endfacet
facet normal 1.0 5.874930171974787e-16 0.0
  outer loop
    vertex -0.499999999999999 2.937465085987393e-16 23.5
    vertex -0.4999999999999999 1.5000000000000004 22.5
    vertex -0.4999999999999999 1.5000000000000004 23.5
  endloop
endfacet
facet normal -0.0 -0.9914448613738105 -0.13052619222005127
  outer loop
    vertex 13.5 -2.4073336471894344 12.565279992072938
    vertex 0.0 -2.3 11.75
    vertex 13.5 -2.3 11.75
  endloop
endfacet
facet normal -0.0 -0.9914448613738105 -0.13052619222005127
  outer loop
    vertex 0.0 -2.3 11.75
    vertex 13.5 -2.4073336471894344 12.565279992072938
    vertex 0.0 -2.4073336471894344 12.565279992072938
  endloop
endfacet
facet normal -0.0 -0.9914448613738105 0.13052619222005168
  outer loop
    vertex 13.5 -2.3 11.75
    vertex 0.0 -2.4073336471894353 10.934720007927059
    vertex 13.5 -2.4073336471894353 10.934720007927059
  endloop
endfacet
facet normal -0.0 -0.9914448613738105 0.13052619222005168
  outer loop
    vertex 0.0 -2.4073336471894353 10.934720007927059
    vertex 13.5 -2.3 11.75
    vertex 0.0 -2.3 11.75
  endloop
endfacet
facet normal -0.0 -0.9238795325112866 0.38268343236509006
  outer loop
    vertex 13.5 -2.4073336471894353 10.934720007927059
    vertex 0.0 -2.722019978079019 10.174999999999999
    vertex 13.5 -2.722019978079019 10.174999999999999
  endloop
endfacet
facet normal -0.0 -0.9238795325112866 0.38268343236509006
  outer loop
    vertex 0.0 -2.722019978079019 10.174999999999999
    vertex 13.5 -2.4073336471894353 10.934720007927059
    vertex 0.0 -2.4073336471894353 10.934720007927059
  endloop
endfacet
facet normal -0.0 -0.7933533402912352 0.6087614290087208
  outer loop
    vertex 13.5 -2.722019978079019 10.174999999999999
    vertex 0.0 -3.2226136392623754 9.522613639262374
    vertex 13.5 -3.2226136392623754 9.522613639262374
  endloop
endfacet
facet normal -0.0 -0.7933533402912352 0.6087614290087208
  outer loop
    vertex 0.0 -3.2226136392623754 9.522613639262374
    vertex 13.5 -2.722019978079019 10.174999999999999
    vertex 0.0 -2.722019978079019 10.174999999999999
  endloop
endfacet
facet normal -0.0 -0.6087614290087199 0.7933533402912357
  outer loop
    vertex 13.5 -3.8750000000000004 9.022019978079017
    vertex 0.0 -3.2226136392623754 9.522613639262374
    vertex 0.0 -3.8750000000000004 9.022019978079017
  endloop
endfacet
facet normal -0.0 -0.6087614290087199 0.7933533402912357
  outer loop
    vertex 0.0 -3.2226136392623754 9.522613639262374
    vertex 13.5 -3.8750000000000004 9.022019978079017
    vertex 13.5 -3.2226136392623754 9.522613639262374
  endloop
endfacet
facet normal -0.0 -0.38268343236509 0.9238795325112867
  outer loop
    vertex 13.5 -4.63472000792706 8.707333647189435
    vertex 0.0 -3.8750000000000004 9.022019978079017
    vertex 0.0 -4.63472000792706 8.707333647189435
  endloop
endfacet
facet normal -0.0 -0.38268343236509 0.9238795325112867
  outer loop
    vertex 0.0 -3.8750000000000004 9.022019978079017
    vertex 13.5 -4.63472000792706 8.707333647189435
    vertex 13.5 -3.8750000000000004 9.022019978079017
  endloop
endfacet
facet normal -0.0 -0.1305261922200515 0.9914448613738105
  outer loop
    vertex 13.5 -5.45 8.6
    vertex 0.0 -4.63472000792706 8.707333647189435
    vertex 0.0 -5.45 8.6
  endloop
endfacet
facet normal -0.0 -0.1305261922200515 0.9914448613738105
  outer loop
    vertex 0.0 -4.63472000792706 8.707333647189435
    vertex 13.5 -5.45 8.6
    vertex 13.5 -4.63472000792706 8.707333647189435
  endloop
endfacet
facet normal 0.0 0.13052619222005127 0.9914448613738105
  outer loop
    vertex 13.5 -6.265279992072942 8.707333647189435
    vertex 0.0 -5.45 8.6
    vertex 0.0 -6.265279992072942 8.707333647189435
  endloop
endfacet
facet normal 0.0 0.13052619222005127 0.9914448613738105
  outer loop
    vertex 0.0 -5.45 8.6
    vertex 13.5 -6.265279992072942 8.707333647189435
    vertex 13.5 -5.45 8.6
  endloop
endfacet
facet normal 0.0 0.3826834323650904 0.9238795325112867
  outer loop
    vertex 13.5 -7.0249999999999995 9.022019978079017
    vertex 0.0 -6.265279992072942 8.707333647189435
    vertex 0.0 -7.0249999999999995 9.022019978079017
  endloop
endfacet
facet normal 0.0 0.3826834323650904 0.9238795325112867
  outer loop
    vertex 0.0 -6.265279992072942 8.707333647189435
    vertex 13.5 -7.0249999999999995 9.022019978079017
    vertex 13.5 -6.265279992072942 8.707333647189435
  endloop
endfacet
facet normal 0.0 0.6087614290087199 0.7933533402912357
  outer loop
    vertex 13.5 -7.677386360737625 9.522613639262374
    vertex 0.0 -7.0249999999999995 9.022019978079017
    vertex 0.0 -7.677386360737625 9.522613639262374
  endloop
endfacet
facet normal 0.0 0.6087614290087199 0.7933533402912357
  outer loop
    vertex 0.0 -7.0249999999999995 9.022019978079017
    vertex 13.5 -7.677386360737625 9.522613639262374
    vertex 13.5 -7.0249999999999995 9.022019978079017
  endloop
endfacet
facet normal 0.0 0.7933533402912357 0.6087614290087199
  outer loop
    vertex 0.0 -8.177980021920982 10.174999999999999
    vertex 13.5 -7.677386360737625 9.522613639262374
    vertex 0.0 -7.677386360737625 9.522613639262374
  endloop
endfacet
facet normal 0.0 0.7933533402912357 0.6087614290087199
  outer loop
    vertex 13.5 -7.677386360737625 9.522613639262374
    vertex 0.0 -8.177980021920982 10.174999999999999
    vertex 13.5 -8.177980021920982 10.174999999999999
  endloop
endfacet
facet normal 0.0 0.9238795325112868 0.3826834323650897
  outer loop
    vertex 0.0 -8.492666352810565 10.93472000792706
    vertex 13.5 -8.177980021920982 10.174999999999999
    vertex 0.0 -8.177980021920982 10.174999999999999
  endloop
endfacet
facet normal 0.0 0.9238795325112868 0.3826834323650897
  outer loop
    vertex 13.5 -8.177980021920982 10.174999999999999
    vertex 0.0 -8.492666352810565 10.93472000792706
    vertex 13.5 -8.492666352810565 10.93472000792706
  endloop
endfacet
facet normal 0.0 0.9914448613738105 0.1305261922200515
  outer loop
    vertex 0.0 -8.6 11.75
    vertex 13.5 -8.492666352810565 10.93472000792706
    vertex 0.0 -8.492666352810565 10.93472000792706
  endloop
endfacet
facet normal 0.0 0.9914448613738105 0.1305261922200515
  outer loop
    vertex 13.5 -8.492666352810565 10.93472000792706
    vertex 0.0 -8.6 11.75
    vertex 13.5 -8.6 11.75
  endloop
endfacet
facet normal -0.0 0.9914448613738103 -0.1305261922200527
  outer loop
    vertex 0.0 -8.492666352810563 12.565279992072943
    vertex 13.5 -8.6 11.75
    vertex 0.0 -8.6 11.75
  endloop
endfacet
facet normal -0.0 0.9914448613738103 -0.1305261922200527
  outer loop
    vertex 13.5 -8.6 11.75
    vertex 0.0 -8.492666352810563 12.565279992072943
    vertex 13.5 -8.492666352810563 12.565279992072943
  endloop
endfacet
facet normal -0.0 0.9238795325112867 -0.3826834323650904
  outer loop
    vertex 0.0 -8.17798002192098 13.325000000000001
    vertex 13.5 -8.492666352810563 12.565279992072943
    vertex 0.0 -8.492666352810563 12.565279992072943
  endloop
endfacet
facet normal -0.0 0.9238795325112867 -0.3826834323650904
  outer loop
    vertex 13.5 -8.492666352810563 12.565279992072943
    vertex 0.0 -8.17798002192098 13.325000000000001
    vertex 13.5 -8.17798002192098 13.325000000000001
  endloop
endfacet
facet normal -0.0 0.7933533402912345 -0.6087614290087215
  outer loop
    vertex 0.0 -7.677386360737624 13.977386360737624
    vertex 13.5 -8.17798002192098 13.325000000000001
    vertex 0.0 -8.17798002192098 13.325000000000001
  endloop
endfacet
facet normal -0.0 0.7933533402912345 -0.6087614290087215
  outer loop
    vertex 13.5 -8.17798002192098 13.325000000000001
    vertex 0.0 -7.677386360737624 13.977386360737624
    vertex 13.5 -7.677386360737624 13.977386360737624
  endloop
endfacet
facet normal -0.0 0.6087614290087202 -0.7933533402912357
  outer loop
    vertex 13.5 -7.024999999999997 14.477980021920981
    vertex 0.0 -7.677386360737624 13.977386360737624
    vertex 0.0 -7.024999999999997 14.477980021920981
  endloop
endfacet
facet normal -0.0 0.6087614290087202 -0.7933533402912357
  outer loop
    vertex 0.0 -7.677386360737624 13.977386360737624
    vertex 13.5 -7.024999999999997 14.477980021920981
    vertex 13.5 -7.677386360737624 13.977386360737624
  endloop
endfacet
facet normal -0.0 0.38268343236509184 -0.9238795325112861
  outer loop
    vertex 13.5 -6.265279992072938 14.792666352810565
    vertex 0.0 -7.024999999999997 14.477980021920981
    vertex 0.0 -6.265279992072938 14.792666352810565
  endloop
endfacet
facet normal -0.0 0.38268343236509184 -0.9238795325112861
  outer loop
    vertex 0.0 -7.024999999999997 14.477980021920981
    vertex 13.5 -6.265279992072938 14.792666352810565
    vertex 13.5 -7.024999999999997 14.477980021920981
  endloop
endfacet
facet normal -0.0 0.1305261922200516 -0.9914448613738105
  outer loop
    vertex 13.5 -5.449999999999999 14.9
    vertex 0.0 -6.265279992072938 14.792666352810565
    vertex 0.0 -5.449999999999999 14.9
  endloop
endfacet
facet normal -0.0 0.1305261922200516 -0.9914448613738105
  outer loop
    vertex 0.0 -6.265279992072938 14.792666352810565
    vertex 13.5 -5.449999999999999 14.9
    vertex 13.5 -6.265279992072938 14.792666352810565
  endloop
endfacet
facet normal -0.0 -0.13052619222005452 -0.9914448613738102
  outer loop
    vertex 13.5 -4.634720007927057 14.792666352810564
    vertex 0.0 -5.449999999999999 14.9
    vertex 0.0 -4.634720007927057 14.792666352810564
  endloop
endfacet
facet normal -0.0 -0.13052619222005452 -0.9914448613738102
  outer loop
    vertex 0.0 -5.449999999999999 14.9
    vertex 13.5 -4.634720007927057 14.792666352810564
    vertex 13.5 -5.449999999999999 14.9
  endloop
endfacet
facet normal -0.0 -0.3826834323650889 -0.9238795325112873
  outer loop
    vertex 13.5 -3.8749999999999987 14.477980021920981
    vertex 0.0 -4.634720007927057 14.792666352810564
    vertex 0.0 -3.8749999999999987 14.477980021920981
  endloop
endfacet
facet normal -0.0 -0.3826834323650889 -0.9238795325112873
  outer loop
    vertex 0.0 -4.634720007927057 14.792666352810564
    vertex 13.5 -3.8749999999999987 14.477980021920981
    vertex 13.5 -4.634720007927057 14.792666352810564
  endloop
endfacet
facet normal -0.0 -0.6087614290087214 -0.7933533402912347
  outer loop
    vertex 13.5 -3.222613639262374 13.977386360737624
    vertex 0.0 -3.8749999999999987 14.477980021920981
    vertex 0.0 -3.222613639262374 13.977386360737624
  endloop
endfacet
facet normal -0.0 -0.6087614290087214 -0.7933533402912347
  outer loop
    vertex 0.0 -3.8749999999999987 14.477980021920981
    vertex 13.5 -3.222613639262374 13.977386360737624
    vertex 13.5 -3.8749999999999987 14.477980021920981
  endloop
endfacet
facet normal -0.0 -0.7933533402912359 -0.6087614290087197
  outer loop
    vertex 13.5 -3.222613639262374 13.977386360737624
    vertex 0.0 -2.7220199780790177 13.324999999999998
    vertex 13.5 -2.7220199780790177 13.324999999999998
  endloop
endfacet
facet normal -0.0 -0.7933533402912359 -0.6087614290087197
  outer loop
    vertex 0.0 -2.7220199780790177 13.324999999999998
    vertex 13.5 -3.222613639262374 13.977386360737624
    vertex 0.0 -3.222613639262374 13.977386360737624
  endloop
endfacet
facet normal -0.0 -0.9238795325112868 -0.3826834323650897
  outer loop
    vertex 13.5 -2.7220199780790177 13.324999999999998
    vertex 0.0 -2.4073336471894344 12.565279992072938
    vertex 13.5 -2.4073336471894344 12.565279992072938
  endloop
endfacet
facet normal -0.0 -0.9238795325112868 -0.3826834323650897
  outer loop
    vertex 0.0 -2.4073336471894344 12.565279992072938
    vertex 13.5 -2.7220199780790177 13.324999999999998
    vertex 0.0 -2.7220199780790177 13.324999999999998
  endloop
endfacet
facet normal 0.9914448613738105 -0.0 -0.1305261922200515
  outer loop
    vertex -10.1 13.5 11.75
    vertex -9.992666352810565 0.0 12.56527999207294
    vertex -10.1 0.0 11.75
  endloop
endfacet
facet normal 0.9914448613738105 -0.0 -0.1305261922200515
  outer loop
    vertex -9.992666352810565 0.0 12.56527999207294
    vertex -10.1 13.5 11.75
    vertex -9.992666352810565 13.5 12.56527999207294
  endloop
endfacet
facet normal 0.9914448613738103 0.0 0.1305261922200527
  outer loop
    vertex -9.992666352810563 13.5 10.934720007927057
    vertex -10.1 0.0 11.75
    vertex -9.992666352810563 0.0 10.934720007927057
  endloop
endfacet
facet normal 0.9914448613738103 0.0 0.1305261922200527
  outer loop
    vertex -10.1 0.0 11.75
    vertex -9.992666352810563 13.5 10.934720007927057
    vertex -10.1 13.5 11.75
  endloop
endfacet
facet normal 0.9238795325112867 0.0 0.3826834323650904
  outer loop
    vertex -9.67798002192098 13.5 10.174999999999999
    vertex -9.992666352810563 0.0 10.934720007927057
    vertex -9.67798002192098 0.0 10.174999999999999
  endloop
endfacet
facet normal 0.9238795325112867 0.0 0.3826834323650904
  outer loop
    vertex -9.992666352810563 0.0 10.934720007927057
    vertex -9.67798002192098 13.5 10.174999999999999
    vertex -9.992666352810563 13.5 10.934720007927057
  endloop
endfacet
facet normal 0.7933533402912352 0.0 0.6087614290087208
  outer loop
    vertex -9.177386360737623 13.5 9.522613639262374
    vertex -9.67798002192098 0.0 10.174999999999999
    vertex -9.177386360737623 0.0 9.522613639262374
  endloop
endfacet
facet normal 0.7933533402912352 0.0 0.6087614290087208
  outer loop
    vertex -9.67798002192098 0.0 10.174999999999999
    vertex -9.177386360737623 13.5 9.522613639262374
    vertex -9.67798002192098 13.5 10.174999999999999
  endloop
endfacet
facet normal 0.6087614290087202 0.0 0.7933533402912357
  outer loop
    vertex -8.524999999999997 0.0 9.022019978079017
    vertex -9.177386360737623 13.5 9.522613639262374
    vertex -9.177386360737623 0.0 9.522613639262374
  endloop
endfacet
facet normal 0.6087614290087202 0.0 0.7933533402912357
  outer loop
    vertex -9.177386360737623 13.5 9.522613639262374
    vertex -8.524999999999997 0.0 9.022019978079017
    vertex -8.524999999999997 13.5 9.022019978079017
  endloop
endfacet
facet normal 0.3826834323650889 0.0 0.9238795325112873
  outer loop
    vertex -7.765279992072938 0.0 8.707333647189435
    vertex -8.524999999999997 13.5 9.022019978079017
    vertex -8.524999999999997 0.0 9.022019978079017
  endloop
endfacet
facet normal 0.3826834323650889 0.0 0.9238795325112873
  outer loop
    vertex -8.524999999999997 13.5 9.022019978079017
    vertex -7.765279992072938 0.0 8.707333647189435
    vertex -7.765279992072938 13.5 8.707333647189435
  endloop
endfacet
facet normal 0.1305261922200517 0.0 0.9914448613738105
  outer loop
    vertex -6.95 0.0 8.6
    vertex -7.765279992072938 13.5 8.707333647189435
    vertex -7.765279992072938 0.0 8.707333647189435
  endloop
endfacet
facet normal 0.1305261922200517 0.0 0.9914448613738105
  outer loop
    vertex -7.765279992072938 13.5 8.707333647189435
    vertex -6.95 0.0 8.6
    vertex -6.95 13.5 8.6
  endloop
endfacet
facet normal -0.1305261922200527 -0.0 0.9914448613738103
  outer loop
    vertex -6.134720007927057 0.0 8.707333647189436
    vertex -6.95 13.5 8.6
    vertex -6.95 0.0 8.6
  endloop
endfacet
facet normal -0.1305261922200527 -0.0 0.9914448613738103
  outer loop
    vertex -6.95 13.5 8.6
    vertex -6.134720007927057 0.0 8.707333647189436
    vertex -6.134720007927057 13.5 8.707333647189436
  endloop
endfacet
facet normal -0.3826834323650904 -0.0 0.9238795325112867
  outer loop
    vertex -5.374999999999998 0.0 9.022019978079019
    vertex -6.134720007927057 13.5 8.707333647189436
    vertex -6.134720007927057 0.0 8.707333647189436
  endloop
endfacet
facet normal -0.3826834323650904 -0.0 0.9238795325112867
  outer loop
    vertex -6.134720007927057 13.5 8.707333647189436
    vertex -5.374999999999998 0.0 9.022019978079019
    vertex -5.374999999999998 13.5 9.022019978079019
  endloop
endfacet
facet normal -0.6087614290087204 -0.0 0.7933533402912355
  outer loop
    vertex -4.722613639262374 0.0 9.522613639262376
    vertex -5.374999999999998 13.5 9.022019978079019
    vertex -5.374999999999998 0.0 9.022019978079019
  endloop
endfacet
facet normal -0.6087614290087204 -0.0 0.7933533402912355
  outer loop
    vertex -5.374999999999998 13.5 9.022019978079019
    vertex -4.722613639262374 0.0 9.522613639262376
    vertex -4.722613639262374 13.5 9.522613639262376
  endloop
endfacet
facet normal -0.7933533402912362 -0.0 0.6087614290087194
  outer loop
    vertex -4.222019978079018 13.5 10.175
    vertex -4.722613639262374 0.0 9.522613639262376
    vertex -4.222019978079018 0.0 10.175
  endloop
endfacet
facet normal -0.7933533402912362 -0.0 0.6087614290087194
  outer loop
    vertex -4.722613639262374 0.0 9.522613639262376
    vertex -4.222019978079018 13.5 10.175
    vertex -4.722613639262374 13.5 9.522613639262376
  endloop
endfacet
facet normal -0.9238795325112868 -0.0 0.3826834323650897
  outer loop
    vertex -3.907333647189435 13.5 10.93472000792706
    vertex -4.222019978079018 0.0 10.175
    vertex -3.907333647189435 0.0 10.93472000792706
  endloop
endfacet
facet normal -0.9238795325112868 -0.0 0.3826834323650897
  outer loop
    vertex -4.222019978079018 0.0 10.175
    vertex -3.907333647189435 13.5 10.93472000792706
    vertex -4.222019978079018 13.5 10.175
  endloop
endfacet
facet normal -0.9914448613738105 -0.0 0.1305261922200517
  outer loop
    vertex -3.8000000000000003 13.5 11.75
    vertex -3.907333647189435 0.0 10.93472000792706
    vertex -3.8000000000000003 0.0 11.75
  endloop
endfacet
facet normal -0.9914448613738105 -0.0 0.1305261922200517
  outer loop
    vertex -3.907333647189435 0.0 10.93472000792706
    vertex -3.8000000000000003 13.5 11.75
    vertex -3.907333647189435 13.5 10.93472000792706
  endloop
endfacet
facet normal -0.9914448613738105 -0.0 -0.13052619222005127
  outer loop
    vertex -3.907333647189435 13.5 12.565279992072941
    vertex -3.8000000000000003 0.0 11.75
    vertex -3.907333647189435 0.0 12.565279992072941
  endloop
endfacet
facet normal -0.9914448613738105 -0.0 -0.13052619222005127
  outer loop
    vertex -3.8000000000000003 0.0 11.75
    vertex -3.907333647189435 13.5 12.565279992072941
    vertex -3.8000000000000003 13.5 11.75
  endloop
endfacet
facet normal -0.9238795325112866 -0.0 -0.3826834323650905
  outer loop
    vertex -4.222019978079019 13.5 13.325000000000001
    vertex -3.907333647189435 0.0 12.565279992072941
    vertex -4.222019978079019 0.0 13.325000000000001
  endloop
endfacet
facet normal -0.9238795325112866 -0.0 -0.3826834323650905
  outer loop
    vertex -3.907333647189435 0.0 12.565279992072941
    vertex -4.222019978079019 13.5 13.325000000000001
    vertex -3.907333647189435 13.5 12.565279992072941
  endloop
endfacet
facet normal -0.7933533402912345 -0.0 -0.6087614290087215
  outer loop
    vertex -4.722613639262375 13.5 13.977386360737624
    vertex -4.222019978079019 0.0 13.325000000000001
    vertex -4.722613639262375 0.0 13.977386360737624
  endloop
endfacet
facet normal -0.7933533402912345 -0.0 -0.6087614290087215
  outer loop
    vertex -4.222019978079019 0.0 13.325000000000001
    vertex -4.722613639262375 13.5 13.977386360737624
    vertex -4.222019978079019 13.5 13.325000000000001
  endloop
endfacet
facet normal -0.608761429008721 -0.0 -0.793353340291235
  outer loop
    vertex -4.722613639262375 13.5 13.977386360737624
    vertex -5.375000000000001 0.0 14.477980021920981
    vertex -5.375000000000001 13.5 14.477980021920981
  endloop
endfacet
facet normal -0.608761429008721 -0.0 -0.793353340291235
  outer loop
    vertex -5.375000000000001 0.0 14.477980021920981
    vertex -4.722613639262375 13.5 13.977386360737624
    vertex -4.722613639262375 0.0 13.977386360737624
  endloop
endfacet
facet normal -0.38268343236509156 -0.0 -0.9238795325112862
  outer loop
    vertex -5.375000000000001 13.5 14.477980021920981
    vertex -6.13472000792706 0.0 14.792666352810565
    vertex -6.13472000792706 13.5 14.792666352810565
  endloop
endfacet
facet normal -0.38268343236509156 -0.0 -0.9238795325112862
  outer loop
    vertex -6.13472000792706 0.0 14.792666352810565
    vertex -5.375000000000001 13.5 14.477980021920981
    vertex -5.375000000000001 0.0 14.477980021920981
  endloop
endfacet
facet normal -0.1305261922200515 -0.0 -0.9914448613738105
  outer loop
    vertex -6.13472000792706 13.5 14.792666352810565
    vertex -6.95 0.0 14.9
    vertex -6.95 13.5 14.9
  endloop
endfacet
facet normal -0.1305261922200515 -0.0 -0.9914448613738105
  outer loop
    vertex -6.95 0.0 14.9
    vertex -6.13472000792706 13.5 14.792666352810565
    vertex -6.13472000792706 0.0 14.792666352810565
  endloop
endfacet
facet normal 0.13052619222005463 -0.0 -0.99144486137381
  outer loop
    vertex -6.95 13.5 14.9
    vertex -7.765279992072942 0.0 14.792666352810564
    vertex -7.765279992072942 13.5 14.792666352810564
  endloop
endfacet
facet normal 0.13052619222005463 -0.0 -0.99144486137381
  outer loop
    vertex -7.765279992072942 0.0 14.792666352810564
    vertex -6.95 13.5 14.9
    vertex -6.95 0.0 14.9
  endloop
endfacet
facet normal 0.3826834323650889 -0.0 -0.9238795325112873
  outer loop
    vertex -7.765279992072942 13.5 14.792666352810564
    vertex -8.525 0.0 14.477980021920981
    vertex -8.525 13.5 14.477980021920981
  endloop
endfacet
facet normal 0.3826834323650889 -0.0 -0.9238795325112873
  outer loop
    vertex -8.525 0.0 14.477980021920981
    vertex -7.765279992072942 13.5 14.792666352810564
    vertex -7.765279992072942 0.0 14.792666352810564
  endloop
endfacet
facet normal 0.608761429008721 -0.0 -0.793353340291235
  outer loop
    vertex -8.525 13.5 14.477980021920981
    vertex -9.177386360737625 0.0 13.977386360737624
    vertex -9.177386360737625 13.5 13.977386360737624
  endloop
endfacet
facet normal 0.608761429008721 -0.0 -0.793353340291235
  outer loop
    vertex -9.177386360737625 0.0 13.977386360737624
    vertex -8.525 13.5 14.477980021920981
    vertex -8.525 0.0 14.477980021920981
  endloop
endfacet
facet normal 0.7933533402912357 -0.0 -0.6087614290087199
  outer loop
    vertex -9.677980021920982 13.5 13.324999999999998
    vertex -9.177386360737625 0.0 13.977386360737624
    vertex -9.677980021920982 0.0 13.324999999999998
  endloop
endfacet
facet normal 0.7933533402912357 -0.0 -0.6087614290087199
  outer loop
    vertex -9.177386360737625 0.0 13.977386360737624
    vertex -9.677980021920982 13.5 13.324999999999998
    vertex -9.177386360737625 13.5 13.977386360737624
  endloop
endfacet
facet normal 0.9238795325112867 -0.0 -0.3826834323650904
  outer loop
    vertex -9.992666352810565 13.5 12.56527999207294
    vertex -9.677980021920982 0.0 13.324999999999998
    vertex -9.992666352810565 0.0 12.56527999207294
  endloop
endfacet
facet normal 0.9238795325112867 -0.0 -0.3826834323650904
  outer loop
    vertex -9.677980021920982 0.0 13.324999999999998
    vertex -9.992666352810565 13.5 12.56527999207294
    vertex -9.677980021920982 13.5 13.324999999999998
  endloop
endfacet
facet normal -0.0 0.7071067811865476 0.7071067811865476
  outer loop
    vertex -28.799999999999997 13.000000000000002 23.5
    vertex 13.500000000000004 13.5 23.0
    vertex -28.799999999999997 13.5 23.0
  endloop
endfacet
facet normal -0.0 0.7071067811865476 0.7071067811865476
  outer loop
    vertex 13.500000000000004 13.5 23.0
    vertex -28.799999999999997 13.000000000000002 23.5
    vertex 13.000000000000004 13.000000000000002 23.5
  endloop
endfacet
facet normal 0.7071067811865476 -0.0 0.7071067811865476
  outer loop
    vertex 13.500000000000004 13.5 23.0
    vertex 13.000000000000004 -27.300000000000008 23.5
    vertex 13.500000000000004 -27.300000000000008 23.0
  endloop
endfacet
facet normal 0.7071067811865476 -0.0 0.7071067811865476
  outer loop
    vertex 13.000000000000004 -27.300000000000008 23.5
    vertex 13.500000000000004 13.5 23.0
    vertex 13.000000000000004 13.000000000000002 23.5
  endloop
endfacet
facet normal -0.0 -0.0 1.0
  outer loop
    vertex -0.499999999999999 2.937465085987393e-16 23.5
    vertex -28.799999999999997 13.000000000000002 23.5
    vertex -28.799999999999997 0.0 23.5
  endloop
endfacet
facet normal -0.0 -0.0 1.0
  outer loop
    vertex -28.799999999999997 13.000000000000002 23.5
    vertex -0.499999999999999 2.937465085987393e-16 23.5
    vertex -0.4999999999999999 1.5000000000000004 23.5
  endloop
endfacet
facet normal -0.0 -0.0 1.0
  outer loop
    vertex 13.000000000000004 -27.300000000000008 23.5
    vertex 0.0 0.0 23.5
    vertex 0.0 -27.3 23.5
  endloop
endfacet
facet normal -0.0 -0.0 1.0
  outer loop
    vertex 0.0 0.0 23.5
    vertex 13.000000000000004 -27.300000000000008 23.5
    vertex 0.0 1.5 23.5
  endloop
endfacet
facet normal -0.0 -0.0 1.0
  outer loop
    vertex -0.4999999999999999 1.5000000000000004 23.5
    vertex 13.000000000000004 13.000000000000002 23.5
    vertex -28.799999999999997 13.000000000000002 23.5
  endloop
endfacet
facet normal -0.0 -0.0 1.0
  outer loop
    vertex 13.000000000000004 13.000000000000002 23.5
    vertex -0.4999999999999999 1.5000000000000004 23.5
    vertex 0.0 1.5 23.5
  endloop
endfacet
facet normal -0.0 -0.0 1.0
  outer loop
    vertex 13.000000000000004 13.000000000000002 23.5
    vertex 0.0 1.5 23.5
    vertex 13.000000000000004 -27.300000000000008 23.5
  endloop
endfacet
facet normal -0.0 0.7071067811865482 -0.7071067811865469
  outer loop
    vertex -28.799999999999997 13.5 0.49999999999999994
    vertex 13.000000000000004 13.000000000000002 0.0
    vertex -28.799999999999997 13.000000000000002 0.0
  endloop
endfacet
facet normal -0.0 0.7071067811865482 -0.7071067811865469
  outer loop
    vertex 13.000000000000004 13.000000000000002 0.0
    vertex -28.799999999999997 13.5 0.49999999999999994
    vertex 13.500000000000004 13.5 0.49999999999999994
  endloop
endfacet
facet normal 0.7071067811865481 -0.0 -0.7071067811865469
  outer loop
    vertex 13.000000000000004 13.000000000000002 0.0
    vertex 13.500000000000004 -27.300000000000008 0.49999999999999994
    vertex 13.000000000000004 -27.300000000000008 0.0
  endloop
endfacet
facet normal 0.7071067811865481 -0.0 -0.7071067811865469
  outer loop
    vertex 13.500000000000004 -27.300000000000008 0.49999999999999994
    vertex 13.000000000000004 13.000000000000002 0.0
    vertex 13.500000000000004 13.5 0.49999999999999994
  endloop
endfacet
facet normal 0.0 0.0 -1.0
  outer loop
    vertex 13.000000000000004 13.000000000000002 0.0
    vertex -28.799999999999997 0.0 0.0
    vertex -28.799999999999997 13.000000000000002 0.0
  endloop
endfacet
facet normal 0.0 0.0 -1.0
  outer loop
    vertex -28.799999999999997 0.0 0.0
    vertex 13.000000000000004 13.000000000000002 0.0
    vertex 0.0 0.0 0.0
  endloop
endfacet
facet normal 0.0 0.0 -1.0
  outer loop
    vertex 0.0 0.0 0.0
    vertex 13.000000000000004 13.000000000000002 0.0
    vertex 0.0 -27.3 0.0
  endloop
endfacet
facet normal 0.0 0.0 -1.0
  outer loop
    vertex 0.0 -27.3 0.0
    vertex 13.000000000000004 13.000000000000002 0.0
    vertex 13.000000000000004 -27.300000000000008 0.0
  endloop
endfacet
facet normal 1.0 -0.0 -0.0
  outer loop
    vertex 13.500000000000004 -27.300000000000008 0.49999999999999994
    vertex 13.5 -7.0249999999999995 9.022019978079017
    vertex 13.500000000000004 -27.300000000000008 23.0
  endloop
endfacet
facet normal 1.0 -0.0 -0.0
  outer loop
    vertex 13.5 -7.0249999999999995 9.022019978079017
    vertex 13.500000000000004 -27.300000000000008 0.49999999999999994
    vertex 13.500000000000004 13.5 0.49999999999999994
  endloop
endfacet
facet normal 1.0 -0.0 -0.0
  outer loop
    vertex 13.500000000000004 -27.300000000000008 23.0
    vertex 13.5 -7.0249999999999995 9.022019978079017
    vertex 13.5 -7.677386360737625 9.522613639262374
  endloop
endfacet
facet normal 1.0 -0.0 -0.0
  outer loop
    vertex 13.500000000000004 -27.300000000000008 23.0
    vertex 13.5 -7.677386360737625 9.522613639262374
    vertex 13.5 -8.177980021920982 10.174999999999999
  endloop
endfacet
facet normal 1.0 -0.0 -0.0
  outer loop
    vertex 13.500000000000004 -27.300000000000008 23.0
    vertex 13.5 -8.177980021920982 10.174999999999999
    vertex 13.5 -8.492666352810565 10.93472000792706
  endloop
endfacet
facet normal 1.0 -0.0 -0.0
  outer loop
    vertex 13.500000000000004 -27.300000000000008 23.0
    vertex 13.5 -8.492666352810565 10.93472000792706
    vertex 13.5 -8.6 11.75
  endloop
endfacet
facet normal 1.0 -0.0 -0.0
  outer loop
    vertex 13.5 -7.0249999999999995 9.022019978079017
    vertex 13.500000000000004 13.5 0.49999999999999994
    vertex 13.5 -6.265279992072942 8.707333647189435
  endloop
endfacet
facet normal 1.0 -0.0 -0.0
  outer loop
    vertex 13.5 -6.265279992072942 8.707333647189435
    vertex 13.500000000000004 13.5 0.49999999999999994
    vertex 13.5 -5.45 8.6
  endloop
endfacet
facet normal 1.0 -0.0 -0.0
  outer loop
    vertex 13.5 -5.45 8.6
    vertex 13.500000000000004 13.5 0.49999999999999994
    vertex 13.5 -4.63472000792706 8.707333647189435
  endloop
endfacet
facet normal 1.0 -0.0 -0.0
  outer loop
    vertex 13.5 -4.63472000792706 8.707333647189435
    vertex 13.500000000000004 13.5 0.49999999999999994
    vertex 13.5 -3.8750000000000004 9.022019978079017
  endloop
endfacet
facet normal 1.0 -0.0 -0.0
  outer loop
    vertex 13.5 -3.8750000000000004 9.022019978079017
    vertex 13.500000000000004 13.5 0.49999999999999994
    vertex 13.5 -3.2226136392623754 9.522613639262374
  endloop
endfacet
facet normal 1.0 -0.0 -0.0
  outer loop
    vertex 13.5 -3.2226136392623754 9.522613639262374
    vertex 13.500000000000004 13.5 0.49999999999999994
    vertex 13.5 -2.722019978079019 10.174999999999999
  endloop
endfacet
facet normal 1.0 -0.0 -0.0
  outer loop
    vertex 13.5 -2.722019978079019 10.174999999999999
    vertex 13.500000000000004 13.5 0.49999999999999994
    vertex 13.5 -2.4073336471894353 10.934720007927059
  endloop
endfacet
facet normal 1.0 -0.0 -0.0
  outer loop
    vertex 13.5 -2.4073336471894353 10.934720007927059
    vertex 13.500000000000004 13.5 0.49999999999999994
    vertex 13.5 -2.3 11.75
  endloop
endfacet
facet normal 1.0 -0.0 -0.0
  outer loop
    vertex 13.500000000000004 -27.300000000000008 23.0
    vertex 13.5 -7.024999999999997 14.477980021920981
    vertex 13.500000000000004 13.5 23.0
  endloop
endfacet
facet normal 1.0 -0.0 -0.0
  outer loop
    vertex 13.5 -7.024999999999997 14.477980021920981
    vertex 13.500000000000004 -27.300000000000008 23.0
    vertex 13.5 -7.677386360737624 13.977386360737624
  endloop
endfacet
facet normal 1.0 -0.0 -0.0
  outer loop
    vertex 13.5 -7.677386360737624 13.977386360737624
    vertex 13.500000000000004 -27.300000000000008 23.0
    vertex 13.5 -8.17798002192098 13.325000000000001
  endloop
endfacet
facet normal 1.0 -0.0 -0.0
  outer loop
    vertex 13.5 -8.17798002192098 13.325000000000001
    vertex 13.500000000000004 -27.300000000000008 23.0
    vertex 13.5 -8.492666352810563 12.565279992072943
  endloop
endfacet
facet normal 1.0 -0.0 -0.0
  outer loop
    vertex 13.5 -8.492666352810563 12.565279992072943
    vertex 13.500000000000004 -27.300000000000008 23.0
    vertex 13.5 -8.6 11.75
  endloop
endfacet
facet normal 1.0 -0.0 -0.0
  outer loop
    vertex 13.500000000000004 13.5 23.0
    vertex 13.5 -7.024999999999997 14.477980021920981
    vertex 13.5 -6.265279992072938 14.792666352810565
  endloop
endfacet
facet normal 1.0 -0.0 -0.0
  outer loop
    vertex 13.500000000000004 13.5 23.0
    vertex 13.5 -6.265279992072938 14.792666352810565
    vertex 13.5 -5.449999999999999 14.9
  endloop
endfacet
facet normal 1.0 -0.0 -0.0
  outer loop
    vertex 13.500000000000004 13.5 23.0
    vertex 13.5 -5.449999999999999 14.9
    vertex 13.5 -4.634720007927057 14.792666352810564
  endloop
endfacet
facet normal 1.0 -0.0 -0.0
  outer loop
    vertex 13.500000000000004 13.5 23.0
    vertex 13.5 -4.634720007927057 14.792666352810564
    vertex 13.5 -3.8749999999999987 14.477980021920981
  endloop
endfacet
facet normal 1.0 -0.0 -0.0
  outer loop
    vertex 13.500000000000004 13.5 23.0
    vertex 13.5 -3.8749999999999987 14.477980021920981
    vertex 13.5 -3.222613639262374 13.977386360737624
  endloop
endfacet
facet normal 1.0 -0.0 -0.0
  outer loop
    vertex 13.500000000000004 13.5 23.0
    vertex 13.5 -3.222613639262374 13.977386360737624
    vertex 13.5 -2.7220199780790177 13.324999999999998
  endloop
endfacet
facet normal 1.0 -0.0 -0.0
  outer loop
    vertex 13.500000000000004 13.5 23.0
    vertex 13.5 -2.7220199780790177 13.324999999999998
    vertex 13.5 -2.4073336471894344 12.565279992072938
  endloop
endfacet
facet normal 1.0 -0.0 -0.0
  outer loop
    vertex 13.500000000000004 13.5 23.0
    vertex 13.5 -2.4073336471894344 12.565279992072938
    vertex 13.5 -2.3 11.75
  endloop
endfacet
facet normal 1.0 -0.0 -0.0
  outer loop
    vertex 13.500000000000004 13.5 23.0
    vertex 13.5 -2.3 11.75
    vertex 13.500000000000004 13.5 0.49999999999999994
  endloop
endfacet
facet normal -0.0 1.0 -0.0
  outer loop
    vertex -28.799999999999997 13.5 0.49999999999999994
    vertex -7.765279992072938 13.5 8.707333647189435
    vertex 13.500000000000004 13.5 0.49999999999999994
  endloop
endfacet
facet normal -0.0 1.0 -0.0
  outer loop
    vertex -7.765279992072938 13.5 8.707333647189435
    vertex -28.799999999999997 13.5 0.49999999999999994
    vertex -8.524999999999997 13.5 9.022019978079017
  endloop
endfacet
facet normal -0.0 1.0 -0.0
  outer loop
    vertex -8.524999999999997 13.5 9.022019978079017
    vertex -28.799999999999997 13.5 0.49999999999999994
    vertex -28.799999999999997 13.5 23.0
  endloop
endfacet
facet normal -0.0 1.0 -0.0
  outer loop
    vertex 13.500000000000004 13.5 0.49999999999999994
    vertex -7.765279992072938 13.5 8.707333647189435
    vertex -6.95 13.5 8.6
  endloop
endfacet
facet normal -0.0 1.0 -0.0
  outer loop
    vertex -8.524999999999997 13.5 9.022019978079017
    vertex -28.799999999999997 13.5 23.0
    vertex -9.177386360737623 13.5 9.522613639262374
  endloop
endfacet
facet normal -0.0 1.0 -0.0
  outer loop
    vertex -9.177386360737623 13.5 9.522613639262374
    vertex -28.799999999999997 13.5 23.0
    vertex -9.67798002192098 13.5 10.174999999999999
  endloop
endfacet
facet normal -0.0 1.0 -0.0
  outer loop
    vertex -9.67798002192098 13.5 10.174999999999999
    vertex -28.799999999999997 13.5 23.0
    vertex -9.992666352810563 13.5 10.934720007927057
  endloop
endfacet
facet normal -0.0 1.0 -0.0
  outer loop
    vertex -9.992666352810563 13.5 10.934720007927057
    vertex -28.799999999999997 13.5 23.0
    vertex -10.1 13.5 11.75
  endloop
endfacet
facet normal -0.0 1.0 -0.0
  outer loop
    vertex -10.1 13.5 11.75
    vertex -28.799999999999997 13.5 23.0
    vertex -9.992666352810565 13.5 12.56527999207294
  endloop
endfacet
facet normal -0.0 1.0 -0.0
  outer loop
    vertex -9.992666352810565 13.5 12.56527999207294
    vertex -28.799999999999997 13.5 23.0
    vertex -9.677980021920982 13.5 13.324999999999998
  endloop
endfacet
facet normal -0.0 1.0 -0.0
  outer loop
    vertex -9.677980021920982 13.5 13.324999999999998
    vertex -28.799999999999997 13.5 23.0
    vertex -9.177386360737625 13.5 13.977386360737624
  endloop
endfacet
facet normal -0.0 1.0 -0.0
  outer loop
    vertex -9.177386360737625 13.5 13.977386360737624
    vertex -28.799999999999997 13.5 23.0
    vertex -8.525 13.5 14.477980021920981
  endloop
endfacet
facet normal -0.0 1.0 -0.0
  outer loop
    vertex -8.525 13.5 14.477980021920981
    vertex -28.799999999999997 13.5 23.0
    vertex -7.765279992072942 13.5 14.792666352810564
  endloop
endfacet
facet normal -0.0 1.0 -0.0
  outer loop
    vertex -7.765279992072942 13.5 14.792666352810564
    vertex -28.799999999999997 13.5 23.0
    vertex -6.95 13.5 14.9
  endloop
endfacet
facet normal -0.0 1.0 -0.0
  outer loop
    vertex 13.500000000000004 13.5 0.49999999999999994
    vertex -5.374999999999998 13.5 9.022019978079019
    vertex 13.500000000000004 13.5 23.0
  endloop
endfacet
facet normal -0.0 1.0 -0.0
  outer loop
    vertex -5.374999999999998 13.5 9.022019978079019
    vertex 13.500000000000004 13.5 0.49999999999999994
    vertex -6.134720007927057 13.5 8.707333647189436
  endloop
endfacet
facet normal -0.0 1.0 -0.0
  outer loop
    vertex -6.134720007927057 13.5 8.707333647189436
    vertex 13.500000000000004 13.5 0.49999999999999994
    vertex -6.95 13.5 8.6
  endloop
endfacet
facet normal -0.0 1.0 -0.0
  outer loop
    vertex 13.500000000000004 13.5 23.0
    vertex -5.374999999999998 13.5 9.022019978079019
    vertex -4.722613639262374 13.5 9.522613639262376
  endloop
endfacet
facet normal -0.0 1.0 -0.0
  outer loop
    vertex 13.500000000000004 13.5 23.0
    vertex -4.722613639262374 13.5 9.522613639262376
    vertex -4.222019978079018 13.5 10.175
  endloop
endfacet
facet normal -0.0 1.0 -0.0
  outer loop
    vertex 13.500000000000004 13.5 23.0
    vertex -4.222019978079018 13.5 10.175
    vertex -3.907333647189435 13.5 10.93472000792706
  endloop
endfacet
facet normal -0.0 1.0 -0.0
  outer loop
    vertex 13.500000000000004 13.5 23.0
    vertex -3.907333647189435 13.5 10.93472000792706
    vertex -3.8000000000000003 13.5 11.75
  endloop
endfacet
facet normal -0.0 1.0 -0.0
  outer loop
    vertex 13.500000000000004 13.5 23.0
    vertex -3.8000000000000003 13.5 11.75
    vertex -3.907333647189435 13.5 12.565279992072941
  endloop
endfacet
facet normal -0.0 1.0 -0.0
  outer loop
    vertex 13.500000000000004 13.5 23.0
    vertex -3.907333647189435 13.5 12.565279992072941
    vertex -4.222019978079019 13.5 13.325000000000001
  endloop
endfacet
facet normal -0.0 1.0 -0.0
  outer loop
    vertex 13.500000000000004 13.5 23.0
    vertex -4.222019978079019 13.5 13.325000000000001
    vertex -4.722613639262375 13.5 13.977386360737624
  endloop
endfacet
facet normal -0.0 1.0 -0.0
  outer loop
    vertex 13.500000000000004 13.5 23.0
    vertex -4.722613639262375 13.5 13.977386360737624
    vertex -5.375000000000001 13.5 14.477980021920981
  endloop
endfacet
facet normal -0.0 1.0 -0.0
  outer loop
    vertex 13.500000000000004 13.5 23.0
    vertex -5.375000000000001 13.5 14.477980021920981
    vertex -6.13472000792706 13.5 14.792666352810565
  endloop
endfacet
facet normal -0.0 1.0 -0.0
  outer loop
    vertex 13.500000000000004 13.5 23.0
    vertex -6.13472000792706 13.5 14.792666352810565
    vertex -6.95 13.5 14.9
  endloop
endfacet
facet normal -0.0 1.0 -0.0
  outer loop
    vertex 13.500000000000004 13.5 23.0
    vertex -6.95 13.5 14.9
    vertex -28.799999999999997 13.5 23.0
  endloop
endfacet
facet normal -4.252012050498963e-16 -1.0 -3.2913077604402e-33
  outer loop
    vertex 13.500000000000004 -27.300000000000008 0.49999999999999994
    vertex 0.0 -27.3 0.0
    vertex 13.000000000000004 -27.300000000000008 0.0
  endloop
endfacet
facet normal -4.252012050498963e-16 -1.0 -3.2913077604402e-33
  outer loop
    vertex 0.0 -27.3 0.0
    vertex 13.500000000000004 -27.300000000000008 0.49999999999999994
    vertex 0.0 -27.3 23.5
  endloop
endfacet
facet normal -4.252012050498963e-16 -1.0 -3.2913077604402e-33
  outer loop
    vertex 0.0 -27.3 23.5
    vertex 13.500000000000004 -27.300000000000008 0.49999999999999994
    vertex 13.500000000000004 -27.300000000000008 23.0
  endloop
endfacet
facet normal -4.252012050498963e-16 -1.0 -3.2913077604402e-33
  outer loop
    vertex 0.0 -27.3 23.5
    vertex 13.500000000000004 -27.300000000000008 23.0
    vertex 13.000000000000004 -27.300000000000008 23.5
  endloop
endfacet
endsolid DN-R35HS1-90InsideCorner
